<?xml version="1.0" encoding="iso-8859-1"?>
<!-- Uploaded to: SVG Repo, www.svgrepo.com, Generator: SVG Repo Mixer Tools -->
<svg height="800px" width="800px" version="1.1" id="Layer_1" xmlns="http://www.w3.org/2000/svg" xmlns:xlink="http://www.w3.org/1999/xlink" 
	 viewBox="0 0 392.601 392.601" xml:space="preserve">
<path style="fill:#56ACE0;" d="M171.476,333.579c-5.43,2.65-11.96,0.323-14.545-5.107c-1.487-3.103-4.267-5.236-7.564-5.883
	c-3.297-0.711-6.723,0.259-9.244,2.521l-18.683,16.873c5.236,18.166,20.105,28.574,39.111,28.768l0,0
	c9.115,0,17.842-2.844,24.954-8.145V210.686c-4.396,1.939-9.374,3.038-14.481,3.038c-20.04,0-36.267-16.291-36.267-36.267
	c0-6.012,4.848-10.925,10.925-10.925s10.925,4.848,10.925,10.925c0,7.952,6.465,14.481,14.481,14.481
	c7.952,0,14.481-6.465,14.481-14.481V29.999c-10.99-8.145-26.182-10.408-39.305-5.624c-12.8,4.719-22.174,15.127-25.083,28.057
	c0.84,7.176,6.853,12.735,14.287,12.735c7.952,0,14.481-6.465,14.481-14.481c0-6.012,4.848-10.925,10.925-10.925
	S171.8,44.609,171.8,50.686c0,20.04-16.291,36.267-36.267,36.267c-17.002,0-31.224-11.766-35.168-27.539
	c-2.457-0.388-4.913-0.646-7.434-0.646c-14.998,0-28.897,7.046-37.236,18.877c-13.253,18.489-9.438,42.99,8.533,57.018l4.202,8.663
	c0,7.952,6.465,14.481,14.481,14.481s14.481-6.465,14.481-14.481c0-6.012,4.848-10.925,10.925-10.925
	c6.077,0,10.925,4.848,10.925,10.925c0,20.04-16.291,36.267-36.267,36.267c-15.192,0-28.186-9.438-33.616-22.691
	c-16.291,6.594-27.281,21.786-27.281,39.305c0,21.85,17.455,40.081,40.016,42.408c9.568-2.457,16.356-6.4,16.937-13.834
	c0.776-5.172-1.293-10.15-5.495-13.188c-4.848-3.556-5.883-10.343-2.327-15.192c3.556-4.848,10.343-5.883,15.192-2.327
	c10.667,7.887,16.162,20.881,14.222,34.004c-2.133,15.063-12.154,25.988-32.065,31.547c-14.804,10.537-20.558,29.608-13.511,46.028
	c8.469,19.135,28.38,28.186,49.39,22.562l21.398-19.265c7.758-6.982,17.907-9.762,28.121-7.758
	c10.15,2.004,18.554,8.469,23.014,17.842C179.234,324.464,176.971,331.058,171.476,333.579z"/>
<path style="fill:#FFC10D;" d="M333.48,154.056c-1.616-0.259-3.038-0.905-4.331-1.875c-2.715-0.453-5.495-0.129-8.145,1.034
	c-7.564,4.073-10.279,10.343-7.499,19.006c1.552,3.556,4.331,6.271,7.952,7.628c5.624,2.263,8.339,8.469,6.206,14.158
	c-1.681,4.331-5.818,6.982-10.15,6.982c-14.093-4.073-20.493-11.442-23.984-20.04c-7.564-21.01,2.909-41.18,18.747-47.774
	c6.594-2.844,13.576-3.685,20.558-2.457c14.158-14.481,16.226-36.267,4.331-53.075c-8.339-11.83-22.238-18.877-37.236-18.877
	c-2.457,0-4.913,0.259-7.434,0.646c-3.943,15.774-18.166,27.539-35.168,27.539c-20.04,0-36.267-16.291-36.267-36.267
	c0-6.012,4.848-10.925,10.925-10.925c6.077,0,10.925,4.848,10.925,10.925c0,7.952,6.465,14.481,14.481,14.481
	c7.434,0,13.446-5.56,14.287-12.735c-2.909-12.929-12.218-23.337-25.083-28.057c-13.123-4.784-28.38-2.457-39.434,5.624v175.774
	c4.396-1.939,9.374-3.038,14.481-3.038c20.04,0,36.267,16.291,36.267,36.267c0,6.012-4.848,10.925-10.925,10.925
	s-10.925-4.848-10.925-10.925c0-7.952-6.465-14.481-14.481-14.481c-7.952,0-14.481,6.465-14.481,14.481v123.539
	c7.111,5.236,15.774,8.145,24.954,8.145c18.877-0.453,34.909-12.024,39.111-28.768l-18.618-16.808
	c-2.521-2.327-5.883-3.232-9.244-2.521c-3.297,0.711-6.077,2.78-7.564,5.883c-2.651,5.43-9.115,7.758-14.545,5.107
	s-7.758-9.115-5.107-14.545c4.461-9.374,12.8-15.838,23.014-17.842c10.15-2.004,20.428,0.776,28.121,7.758l21.398,19.265
	c17.067,5.624,42.02-3.426,49.39-22.562c7.176-16.743,1.099-36.396-14.481-46.675c-8.469-7.046-5.883-19.071,5.43-19.911
	c23.596-1.422,42.02-20.17,42.02-42.667C370.781,175.324,355.072,157.611,333.48,154.056z"/>
<g>
	<path style="fill:#194F82;" d="M392.567,196.27c0-25.341-14.998-47.58-37.56-58.117c15.063-21.463,15.774-50.683,0-73.051
		c-12.412-17.648-32.97-28.121-55.079-28.121c-3.426,0-6.788,0.259-10.15,0.776c-6.465-15.515-19.265-27.927-35.749-33.939
		c-20.558-7.24-43.248-3.814-57.729,7.176c-15.774-11.055-34.715-14.222-57.729-7.176c-16.549,6.012-29.349,18.295-35.749,33.939
		c-3.297-0.453-6.723-0.776-10.149-0.776c-22.044,0-42.667,10.537-55.079,28.121c-15.774,22.303-15.063,51.523,0,73.051
		c-22.562,10.537-37.56,32.711-37.56,58.117c0,26.764,17.002,49.972,41.244,59.733c-11.96,16.614-14.998,38.659-6.659,58.182
		c13.576,28.962,39.952,40.081,66.586,36.913c9.503,25.471,30.901,40.598,59.087,41.503l0,0c12.994,0,25.406-3.879,35.879-11.055
		c10.408,7.111,22.885,11.055,35.879,11.055c26.182,0,51.588-17.325,59.087-41.503c28.186,3.943,56.824-13.059,66.586-36.913
		c8.339-19.523,5.301-41.568-6.659-58.182C375.565,246.177,392.567,223.033,392.567,196.27z M185.375,177.393
		c0,7.952-6.465,14.481-14.481,14.481c-7.952,0-14.481-6.465-14.481-14.481c0-6.012-4.848-10.925-10.925-10.925
		c-6.077,0-10.925,4.848-10.925,10.925c0,20.04,16.291,36.267,36.267,36.267c5.172,0,10.02-1.099,14.481-3.038v151.855
		c-7.111,5.236-15.774,8.145-24.954,8.145l0,0c-19.006-0.129-33.745-10.602-39.111-28.768l18.683-16.873
		c2.521-2.263,5.947-3.232,9.244-2.521c3.297,0.711,6.077,2.78,7.564,5.883c2.651,5.43,9.115,7.758,14.545,5.107
		s7.758-9.115,5.107-14.545c-4.461-9.374-12.8-15.838-23.014-17.842s-20.428,0.776-28.121,7.758l-21.398,19.265
		c-21.075,5.624-40.857-3.426-49.39-22.562c-7.046-16.356-1.293-35.556,13.511-46.028c19.911-5.56,29.931-16.485,32.065-31.547
		c1.939-13.123-3.491-26.117-14.222-34.004c-4.848-3.556-11.636-2.521-15.192,2.327s-2.521,11.636,2.327,15.192
		c4.267,3.103,6.271,8.016,5.495,13.188c-0.517,7.434-7.37,11.442-16.937,13.834c-22.562-2.327-40.016-20.558-40.016-42.408
		c0-17.519,11.055-32.776,27.281-39.305c5.43,13.317,18.36,22.691,33.616,22.691c20.04,0,36.267-16.291,36.267-36.267
		c0-6.012-4.848-10.925-10.925-10.925c-6.077,0-10.925,4.848-10.925,10.925c0,7.952-6.465,14.481-14.481,14.481
		s-14.481-6.465-14.481-14.481l-4.202-8.663C45.61,120.44,41.86,95.874,54.919,77.514c8.339-11.83,22.238-18.877,37.236-18.877
		c2.457,0,4.913,0.259,7.434,0.646c3.943,15.774,18.166,27.539,35.168,27.539c20.04,0,36.267-16.291,36.267-36.267
		c0-6.012-4.848-10.925-10.925-10.925c-6.012,0-10.925,4.848-10.925,10.925c0,7.952-6.465,14.481-14.481,14.481
		c-7.434,0-13.446-5.56-14.287-12.735c2.909-12.929,12.218-23.337,25.083-28.057c13.123-4.784,28.38-2.457,39.305,5.624v147.588
		h0.582V177.393z M328.761,238.937c-11.313,0.905-13.899,12.994-5.43,19.911c15.515,10.343,21.657,29.996,14.481,46.675
		c-7.37,19.135-32.323,28.186-49.39,22.562l-21.398-19.265c-7.758-6.982-17.907-9.762-28.121-7.758
		c-10.15,2.004-18.554,8.469-23.014,17.842c-2.65,5.43-0.323,11.96,5.107,14.545c5.43,2.521,11.96,0.323,14.545-5.107
		c1.487-3.103,4.267-5.236,7.564-5.883c3.297-0.711,6.723,0.259,9.244,2.521l18.683,16.873
		c-4.073,16.743-20.17,28.251-39.111,28.768c-9.115,0-17.842-2.844-24.954-8.145V239.001c0-7.952,6.465-14.481,14.481-14.481
		c7.952,0,14.481,6.465,14.481,14.481c0,6.012,4.848,10.925,10.925,10.925s10.925-4.848,10.925-10.925
		c0-20.04-16.226-36.267-36.267-36.267c-5.172,0-10.02,1.099-14.481,3.038V29.999c10.99-8.145,26.182-10.408,39.434-5.624
		c12.8,4.719,22.174,15.127,25.083,28.057c-0.84,7.176-6.853,12.735-14.287,12.735c-7.952,0-14.481-6.465-14.481-14.481
		c0-6.012-4.848-10.925-10.925-10.925s-10.925,4.848-10.925,10.925c0,20.04,16.226,36.267,36.267,36.267
		c17.002,0,31.224-11.766,35.168-27.539c2.457-0.388,4.913-0.646,7.434-0.646c14.998,0,28.897,7.046,37.236,18.877
		c11.895,16.873,9.762,38.659-4.331,53.075c-6.853-1.164-13.964-0.388-20.558,2.457c-15.838,6.465-26.376,26.634-18.747,47.774
		c3.491,8.598,9.956,15.903,23.984,20.04c4.331,0,8.469-2.651,10.15-6.982c2.263-5.56-0.517-11.895-6.206-14.158
		c-3.62-1.422-6.4-4.202-7.952-7.628c-2.78-8.727-0.065-14.998,7.499-19.006c2.521-1.099,5.43-1.487,8.145-1.034
		c1.293,0.84,2.715,1.551,4.331,1.875c21.657,3.491,37.301,21.269,37.301,42.085C370.781,218.767,352.293,237.45,328.761,238.937z"
		/>
	<path style="fill:#194F82;" d="M121.893,216.763c-5.624,2.004-8.663,8.275-6.594,13.899c3.297,9.374,2.263,19.523-3.038,27.992
		c-5.236,8.404-13.964,13.834-23.855,14.933h-0.259c-5.947,0.711-10.149,6.012-9.503,12.024c1.099,6.723,7.499,9.956,12.154,9.568
		c16.549-1.745,31.16-10.925,39.952-25.018c8.792-14.158,10.667-31.224,5.107-46.933
		C133.787,217.668,127.517,214.759,121.893,216.763z"/>
	<path style="fill:#194F82;" d="M137.602,104.019h-31.806c-6.659,0-12.024-5.43-12.024-12.024v-2.392
		c0-6.012-4.848-10.925-10.925-10.925c-6.077,0-10.925,4.848-10.925,10.925v2.263c0,18.683,15.192,33.939,33.939,33.939h31.741
		c6.659,0,12.024,5.43,12.024,12.024c0,6.012,4.848,10.925,10.925,10.925c6.012,0,10.925-4.848,10.925-10.925
		C171.476,119.147,156.284,104.019,137.602,104.019z"/>
	<path style="fill:#194F82;" d="M320.68,91.866v-2.263c0-6.012-4.848-10.925-10.925-10.925c-6.012,0-10.925,4.848-10.925,10.925
		v2.263c0,6.659-5.43,12.024-12.024,12.024H255c-18.683,0-33.939,15.192-33.939,33.939c0,6.012,4.848,10.925,10.925,10.925
		s10.925-4.848,10.925-10.925c0-6.659,5.43-12.024,12.024-12.024h31.871C305.553,125.805,320.68,110.549,320.68,91.866z"/>
	<path style="fill:#194F82;" d="M280.082,193.555c-5.107-3.168-11.83-1.616-14.998,3.491c-3.168,5.107-1.616,11.83,3.491,14.998
		c8.404,5.236,13.899,13.899,14.998,23.79c1.099,9.891-2.327,19.523-9.438,26.57l-0.129,0.129
		c-4.267,4.267-4.202,11.055,0.065,15.321c5.042,4.655,12.024,3.168,15.451,0c11.83-11.636,17.648-27.927,15.774-44.412
		C303.42,216.892,294.175,202.347,280.082,193.555z"/>
</g>
</svg>