<?xml version="1.0" encoding="utf-8"?>
<!-- Uploaded to: SVG Repo, www.svgrepo.com, Generator: SVG Repo Mixer Tools -->
<svg width="800px" height="800px" viewBox="0 -94.2 430.083 430.083" xmlns="http://www.w3.org/2000/svg"><defs><style>.a{fill:#211715;}.b{fill:#ffffff;}.c{fill:#c6c6c6;}.d{fill:#85807f;}.e{fill:#7a7473;}.f{fill:#5199d1;}</style></defs><path class="a" d="M135.365,71.884c10.046,5.379,20.029,10.877,30.032,16.335q23.133,12.623,46.249,25.272,10.118,5.535,20.23,11.08c2.258,1.24,4.279-2.213,2.019-3.453q-20.078-11.017-40.179-21.99-21.7-11.86-43.42-23.695c-4.3-2.341-8.6-4.692-12.912-7-2.269-1.215-4.292,2.237-2.019,3.454Z"/><path class="b" d="M188.586,63.083a16.341,16.341,0,0,1,.495,3.537c.246,2.188,2.279,10.251,2.176,10.786a21,21,0,0,1-.186,3.2,8.827,8.827,0,0,1-.54,2.178A4.207,4.207,0,0,1,188.4,85.1a10.127,10.127,0,0,1-5.369.871.749.749,0,0,0-.826.5,20.626,20.626,0,0,0-.932,3.423l.082-.085c-.29,2.3,1.55,5.08,2.19,8.03a59.749,59.749,0,0,1,1.55,9.67,55.811,55.811,0,0,1-.34,8.3c2.619-3.943,3.889-4.745,5.751-8.278a2.9,2.9,0,0,0-.188-3.007,9.408,9.408,0,0,1-1.444-3.128,5.635,5.635,0,0,1,1.926-5.126,5.479,5.479,0,0,1,4.94-.955,3.4,3.4,0,0,1,2.09,2.025l.51-.543c1.073-1.137,6.143,1.387,7.272,2.34a4.907,4.907,0,0,1,1.6,3.275,5.078,5.078,0,0,1-2.015,4.02c0,.06,0,.1,0,.1a9.63,9.63,0,0,1-1.4,3.254,4.9,4.9,0,0,1-2.47,1.878,3.866,3.866,0,0,1-1.941-.3c-.1.465-.165.753-.165.753-.62,2.829-2.855,5.688-4.381,8.073a99.284,99.284,0,0,1-8,10.992c-.552.647-1.118,1.283-1.708,1.9a4.382,4.382,0,0,1-2.478,1.252c-.167.045-.44-.026-.365-.181l-1.206-.287c-.321,1.6-.593,3.2-.776,4.805-.39,3.328-.71,9.661-1.12,13.212a15.4,15.4,0,0,1,3.168,1.7c1.013.743,2.241,1.966,2.2,2.984a4.754,4.754,0,0,1-1.1,1.767,8.039,8.039,0,0,1,1.6,2.569,2.318,2.318,0,0,1-.232,1.285,8.246,8.246,0,0,1-1.659,2.451c1.44,2.84,2.77,5.68,4.52,9.429a39.122,39.122,0,0,1,3.35,9.25,30.6,30.6,0,0,1,.31,9.21c-1.313,10.48-3.193,28.918-2.558,31.307-.764,1.435,5.964,4.181,9.108,5.5,2.229.933,4.589,1.668,5.39,3.948a4.026,4.026,0,0,1-1.8,4.475,7.591,7.591,0,0,1-5.017.9c-1.722-.2-3.391-.721-5.1-1.014a67.32,67.32,0,0,0-9.023-.433c-3.041-.108-6.586-.866-7.848-3.634-1.073-2.353-.1-5.045,1.241-7.255a12.63,12.63,0,0,0,1.294-2.9,16.209,16.209,0,0,0-.211-3.25c-1.667-11.333-2.429-15.166-2.173-24.672.071-2.668.257-4.24-.61-6.578a12.569,12.569,0,0,0-2.755-4.165c-1.214,3.313-1.008,5.9-1.941,9.054A19.8,19.8,0,0,1,167.522,198a15.986,15.986,0,0,1-4.622,4.657c-9.265,6.274-16.893,11.579-26.531,17.252-1.095,2.408.325,5.238,2.043,6.7.931.791,2.054,1.327,3,2.1a3.774,3.774,0,0,1,1.611,3.123,3.3,3.3,0,0,1-1.839,2.431,9.024,9.024,0,0,1-3.054.8,16.374,16.374,0,0,1-3.744.18,9.227,9.227,0,0,1-6.209-3.351c-.779-.967-1.352-2.081-2.085-3.083-1.21-1.654-2.826-2.963-4.163-4.516a7.762,7.762,0,0,1-2.238-5.546,7.29,7.29,0,0,1,2.632-4.927,10.694,10.694,0,0,1,4.992-2.08c1.131-.38,2.765-.623,3.425-1.337.6-.654,1.107-1.436,1.666-2.133,1.051-1.313,3.89-4.946,5.019-6.193,3.182-3.515,5.544-6.57,9.461-9.216,1.537-1.038,2.847-1.389,4.161-2.381,1.5-1.13,2.246-1.634,2.418-3.5.112-1.217.284-6.241.365-8.409a130.253,130.253,0,0,1,1.2-13q-.321-.447-.644-.908c-1.834-2.824-3.7-5.718-4.5-8.988-1.112-4.54-.06-9.328,1.425-13.76.373-1.112.869-2.336,2.282-2.458q-.756-1.388-1.459-2.719a32.639,32.639,0,0,1-3.464-8.452c-.9-4.351-.05-8.851.8-13.212,1.319-6.763,2.641-13.537,4.6-20.143a16.882,16.882,0,0,1,4.1-6.858,15.356,15.356,0,0,1,7.425-3.88l.934-.275c-.869-.877-1.913-1.67-2.649-2.35a17.3,17.3,0,0,1-5.64-11.7,17.048,17.048,0,0,1,2.117-8.912c3.452-6.1,7.8-7.464,10.507-8.028a17.188,17.188,0,0,1,7.838.294,14.138,14.138,0,0,1,8.18,5.433,11.879,11.879,0,0,1,1.877,5.182"/><path class="a" d="M188.243,72.515a10.91,10.91,0,0,0-2.811-1.5.4.4,0,0,1,.018-.7c1.254-.611,2.549-1.145,3.327-1.538l.63-.274c.378,1.894.988,4.524,1.4,6.439-.84-.687-1.556-1.269-1.556-1.269A3.868,3.868,0,0,0,188.243,72.515Z"/><path class="b" d="M298.11,90.56h-.239a124.294,124.294,0,0,0-4.852-12.283,21.441,21.441,0,0,0-2.173-2.984l1.118-2.776.95-2.356a23.067,23.067,0,0,0,.835-2.679.847.847,0,0,1,.988-.523A11.72,11.72,0,0,0,301,66.315a4.556,4.556,0,0,0,.848-.438c.591.816,1.227,1.721,1.966,2.775a1.019,1.019,0,0,0,.437.356l-2.381,2.111a7.622,7.622,0,0,0,.222,1.961,15.711,15.711,0,0,0,1.5,3.92c-.535-.022-.989-.035-1.339-.035l-2.76.058c1.489,4.108,3.428,9.947,3.649,13.539C301.242,90.56,298.862,90.56,298.11,90.56Z"/><path class="c" d="M137.8,68.79c-2.474-2.934-6.1-7.245-8.435-9.561a14.408,14.408,0,0,0-2.746-2.631c-2.734-1.58-12.187-2.188-14.271-1.941-.232.028-.876.124-1.012.368a1.534,1.534,0,0,0-.114,1.159,37.445,37.445,0,0,0,4.537,10.308,6.928,6.928,0,0,0,2.929,2.079c2.211.758,13.056,3.278,17.129,4.186"/><path class="b" d="M54.951,237.679a21.623,21.623,0,0,1-4.044.3,7.143,7.143,0,0,1-3.624-1.559,5.219,5.219,0,0,1-1.135-3.186c-.121-1.574,1.516-5.488,2-8.587l.138-.884.294.253c1.609,1.382,10.081,2.292,12.613,1,1.685,2.765,4.009,3.9,7.058,5.519,1.99,1.054,3.045,1.314,3.856,2.735a4.311,4.311,0,0,1,.137,3.2c-.957,1.45-2.017,2.189-6.414,2.243-3.659.044-6.247-.814-9.641-1.067A7.517,7.517,0,0,0,54.951,237.679Z"/><path class="b" d="M6.807,229.919a43.442,43.442,0,0,0-4.394-9.152c-2.218-3.5,4.385-8.2,7.826-10.451a19.513,19.513,0,0,0,9.1,8.521c-.826,3.234-2.2,6.218-.112,9.027a13.384,13.384,0,0,1,1.809,3.459,8.314,8.314,0,0,1,.378,3.529,3.08,3.08,0,0,1-2.245,2.449,9.262,9.262,0,0,1-5.641-.118c-1.746-.581-5.574-1.928-6.424-6.085C7.03,230.721,6.928,230.326,6.807,229.919Z"/><path class="b" d="M302.764,41.217c-.523-6.937-4.694-10.579-8.11-12.637a16,16,0,0,0-10.087-2.155,19.251,19.251,0,0,0-11.2,4.907A20.494,20.494,0,0,0,267,42.884a20.2,20.2,0,0,0,.679,8.964,23.534,23.534,0,0,0,5.055,8.157c2.554,2.567,4.692,4.2,5.012,6.444a1.409,1.409,0,0,1,.72.136,75.43,75.43,0,0,1,6.676,4.035,22.949,22.949,0,0,1,5.711,4.665c.672-1.671,1.114-2.768,1.114-2.768l.95-2.356a23.067,23.067,0,0,0,.835-2.679.847.847,0,0,1,.988-.523A11.72,11.72,0,0,0,301,66.315a4.864,4.864,0,0,0,2.617-2.533,10.253,10.253,0,0,0,.77-2.479,24.19,24.19,0,0,0,.43-3.681,3.9,3.9,0,0,1,.846-1.673c.659-.746,1.737-1.341,1.149-2.595a2.372,2.372,0,0,0-1.107-1.06c-2.359-1.2-2.539-4.735-2.675-7.279a18.958,18.958,0,0,0-.334-4.119"/><path class="d" d="M290.508,26.837a16.091,16.091,0,0,0-5.941-.412,19.251,19.251,0,0,0-11.2,4.907A20.494,20.494,0,0,0,267,42.884a20.2,20.2,0,0,0,.679,8.964,23.534,23.534,0,0,0,5.055,8.157c1.259,1.265,2.417,2.3,3.306,3.3.649-.216,1.278-.446,1.9-.693a7.915,7.915,0,0,0,4.933-5.83,2.445,2.445,0,0,0,.041-.293,6.181,6.181,0,0,1-1.709-4.011,3.551,3.551,0,0,1,1.1-2.965,2.424,2.424,0,0,1,2.044-.368,3.029,3.029,0,0,1,1.588.963,25.664,25.664,0,0,1,6.138-6.429.937.937,0,0,1,1.189.015.919.919,0,0,0,1.161.058c1.706-1.267,6.1-4.357,7.066-6.285l.34-.676a16.15,16.15,0,0,0-7.172-8.21A15.69,15.69,0,0,0,290.508,26.837Z"/><path class="b" d="M316.349,63.369a3.606,3.606,0,0,0-.317-.71,6.234,6.234,0,0,0-1.318-1.409c-.623-.543-1.237-1.1-1.861-1.639L301.868,71.119a7.622,7.622,0,0,0,.222,1.961,15.739,15.739,0,0,0,1.5,3.917c2.738.117,7.6.5,11.326.819a5.7,5.7,0,0,1,.132-.963l1.318-6.278a16.265,16.265,0,0,0,.131-6.649A5.066,5.066,0,0,0,316.349,63.369Z"/><path class="c" d="M309.508,57.6c-1.046-1.618-2.1-3.241-3.01-4.712a1.939,1.939,0,0,1,.312.466c.588,1.254-.49,1.849-1.149,2.595a3.9,3.9,0,0,0-.846,1.673,24.19,24.19,0,0,1-.43,3.681,10.253,10.253,0,0,1-.77,2.479,5.177,5.177,0,0,1-1.769,2.094c.591.818,1.227,1.722,1.966,2.776a1.136,1.136,0,0,0,1.626.211c1.848-1.325,4.951-3.672,6.77-5.065a1.092,1.092,0,0,0,.273-1.441C311.619,60.883,310.57,59.244,309.508,57.6Z"/><path class="b" d="M417.113,117.356a96.983,96.983,0,0,1,3.238,18.539c.328,4.327.365,8.671.3,13.009a262.942,262.942,0,0,1-6.565,54.233,7.673,7.673,0,0,0,1.668,6.114c2.711,2.891,4.543,4.507,7.882,7.858a16.45,16.45,0,0,1,4.15,7.07,15.1,15.1,0,0,1-1.794,10.871c-1.542,2.535-5.5,3.528-9.349,3.528-12.786,0-31.423-.1-43.544-.1-2.533,0-5.461-.391-7.179-2.252a12.3,12.3,0,0,1-3.066-5.734c-1.03-5.876,2.405-9.1,6.321-13.6a53.257,53.257,0,0,0,9.3-15.835c2.585-7.339,2.323-16.737,1.652-21.663-.333-2.446-.666-4.892-.948-7.344a175.592,175.592,0,0,1-.421-35.935,38.609,38.609,0,0,1,3.235-13.368l3.651-10.01c.066.226.454.137.517-.09a.862.862,0,0,0-.2-.656c-2.254-3.574-3.856-23.507-4.6-27.582a56.2,56.2,0,0,1-.237-20.788c1.02-5.645,5.3-9.647,8.362-10.389a18.868,18.868,0,0,1,11.068.08,22.08,22.08,0,0,1,4.06,1.412,21.706,21.706,0,0,1,9.785,10.121,42.862,42.862,0,0,1,3.777,13.765,84.772,84.772,0,0,1-1.7,30.746Z"/><path class="c" d="M393.341,46.1c-.164,2.1-.455,4.434-.636,6.392l-.01.111a18.866,18.866,0,0,1,7.846.715,22.08,22.08,0,0,1,4.06,1.412,17.637,17.637,0,0,1,2.04,1.136c.1-.963.167-1.585.167-1.585.157-1.481.338-4.22.338-5.618V46.172c-4.821.377-8.392-.37-13.685-2.579C393.456,44.352,393.41,45.2,393.341,46.1Z"/><path class="b" d="M382.261,33.252A16.775,16.775,0,0,1,380.267,26a27.872,27.872,0,0,1,2.293-13.3,19.067,19.067,0,0,1,4.258-5.622,19.524,19.524,0,0,1,18.143-4.493A20.363,20.363,0,0,1,418.8,16.6c.731,2.5,1.562,4.4,2.217,6.687a26.329,26.329,0,0,1,.9,3.6,24.788,24.788,0,0,1-1.146,9.2c-1.143,3.142-1.619,3.761-4.145,6.263a16.006,16.006,0,0,1-7.168,3.578c-6.61.894-10.541.1-17.652-3.037a22.584,22.584,0,0,1-4.6-2.878A22.237,22.237,0,0,1,382.261,33.252Z"/><path class="a" d="M165.056,82.262a19.626,19.626,0,0,0-6.719,3.029,17.526,17.526,0,0,0-5.078,6.276,42.083,42.083,0,0,0-2.625,8.4c-.73,2.956-1.37,5.933-1.975,8.917-1.164,5.739-2.9,11.869-2.248,17.766.627,5.667,3.715,10.714,6.44,15.605,3.145,5.644,6.5,11.184,10.179,16.5,1.456,2.1,4.925.1,3.454-2.019-3-4.33-5.778-8.814-8.41-13.377q-1.971-3.414-3.827-6.894a40.646,40.646,0,0,1-3.189-6.936c-1.662-5.352-.246-10.947.8-16.277,1.081-5.5,2.211-11,3.735-16.4a16.305,16.305,0,0,1,3.984-7.36,14.09,14.09,0,0,1,6.542-3.366c2.477-.687,1.425-4.547-1.064-3.857Z"/><path class="c" d="M111.974,58.6c-.261-.765-.509-1.565-.754-2.417a1.534,1.534,0,0,1,.114-1.159c.136-.244.78-.34,1.012-.368,2.084-.247,11.537.361,14.271,1.941a14.408,14.408,0,0,1,2.746,2.631c2.336,2.316,5.96,6.627,8.435,9.561-.667,1.314-1.423,2.818-1.984,3.967-4.073-.908-14.917-3.428-17.128-4.186a6.928,6.928,0,0,1-2.929-2.079A36.507,36.507,0,0,1,111.974,58.6Z"/><path class="a" d="M139.212,67.376c-1.927-2.285-3.85-4.575-5.845-6.8q-1.215-1.356-2.485-2.656a16.242,16.242,0,0,0-3.255-3.048,16.1,16.1,0,0,0-5.571-1.564,62.567,62.567,0,0,0-6.858-.668c-1.587-.065-3.887-.323-5.143.842-1.315,1.22-.854,3-.393,4.476a43.543,43.543,0,0,0,1.714,4.571c1.134,2.579,2.417,5.431,4.841,7.019a15.628,15.628,0,0,0,4.788,1.751c4.736,1.222,9.506,2.322,14.278,3.387,2.508.56,3.579-3.3,1.064-3.857-4.813-1.074-9.625-2.182-14.4-3.418-1.912-.495-3.826-.844-4.915-2.667a36.07,36.07,0,0,1-2.3-4.464c-.305-.725-.574-1.466-.828-2.209-.218-.639-.849-1.962-.64-2.513l-.514.882q-.561.324-.052.172-.386.048-.172.029c.145-.011.29-.023.435-.025.424-.005.847-.013,1.272-.006,1.065.019,2.13.081,3.192.165a34.336,34.336,0,0,1,7.071,1.12,4.46,4.46,0,0,1,2.413,1.612c.982,1.082,2.013,2.116,3,3.2,2.226,2.442,4.349,4.977,6.479,7.5,1.662,1.97,4.479-.872,2.828-2.829Z"/><path class="a" d="M136.961,74.981c1.007-2.18,2.119-4.315,3.212-6.453a2,2,0,1,0-3.454-2.019c-1.093,2.138-2.2,4.273-3.212,6.453a2.165,2.165,0,0,0-.2,1.542,2,2,0,0,0,3.656.477Z"/><path class="a" d="M133.452,74.94c1.474-3.189,3.1-6.312,4.7-9.441a2,2,0,0,0-3.454-2.018c-1.6,3.128-3.225,6.251-4.7,9.44a2.05,2.05,0,0,0,.718,2.737,2.024,2.024,0,0,0,2.736-.718Z"/><path class="a" d="M129.971,74.267c1.733-3.753,3.647-7.428,5.528-11.109a2,2,0,0,0-3.454-2.019c-1.88,3.681-3.795,7.356-5.528,11.109a2.047,2.047,0,0,0,.717,2.736,2.025,2.025,0,0,0,2.737-.717Z"/><path class="e" d="M177.36,52.837a19.425,19.425,0,0,0-6.5.085,14.12,14.12,0,0,0-8.266,4.808,15.231,15.231,0,0,0-4.781,8.249,38.891,38.891,0,0,0-.5,11.237c.149,2.5.332,5.023.275,7.527a4.4,4.4,0,0,0,3.679,4.49c1.775.284,3.629.5,5.919.658.432-2.959,4.55-9.974,5.109-12.139l.042-.2a5.322,5.322,0,0,1-1.7-3.394,3.07,3.07,0,0,1,.8-2.613,2.1,2.1,0,0,1,1.745-.42,2.388,2.388,0,0,1,.418.106c1.54-.315,1.959-1.758,2.493-2.992a12.092,12.092,0,0,1,2-3.16,2.607,2.607,0,0,1,.66-.585,4.291,4.291,0,0,1,1.5-.462c2.846-.354,5.232-.453,8.423-.823A19.7,19.7,0,0,0,187,57.9c-.579-1.222-2.861-3.667-7.861-4.75C178.572,53.032,177.976,52.924,177.36,52.837Z"/><path class="a" d="M391.456,43.952c-.069,2.856-.486,5.694-.751,8.536a2.007,2.007,0,0,0,2,2,2.054,2.054,0,0,0,2-2c.265-2.842.682-5.68.751-8.536a2.018,2.018,0,0,0-2-2,2.038,2.038,0,0,0-2,2Z"/><path class="a" d="M405.146,48.659a54.94,54.94,0,0,1-.338,5.618,2,2,0,0,0,.586,1.414,2,2,0,0,0,2.828,0,2.289,2.289,0,0,0,.586-1.414,54.94,54.94,0,0,0,.338-5.618,2,2,0,1,0-4,0Z"/><path class="a" d="M413.523,22.579c.46,1.09.545,3.709-1.458,4.158-2.683.284-3.189-2.836-2.457-4.412C410.207,21.034,412.322,20.288,413.523,22.579Z"/><path class="a" d="M384.22,114.154a2.294,2.294,0,0,0,3.5-.294c.792-1.11.305-2.223-.264-3.284-.12-.224.089.305-.069-.171-.087-.264-.182-.525-.264-.792-.2-.645-.357-1.3-.506-1.958-.768-3.389-1.228-6.852-1.666-10.3-.422-3.324-.782-6.655-1.19-9.98-.326-2.663-.878-5.291-1.174-7.956a52.074,52.074,0,0,1,.45-15.269c.681-3.6,3.167-7.928,6.858-8.963a19.812,19.812,0,0,1,14.727,1.792c4.47,2.484,7.523,6.958,9.239,11.684,2.237,6.162,2.88,12.928,2.977,19.444a83.384,83.384,0,0,1-2.309,20.716c-.6,2.5,3.255,3.569,3.857,1.063,2.946-12.27,3.547-25.657.6-38-1.3-5.449-3.676-10.762-7.668-14.778a24.048,24.048,0,0,0-14.887-6.591c-4.579-.459-9.479.723-12.763,4.049-4.038,4.088-4.9,9.5-5.284,15.017a58.46,58.46,0,0,0,.721,13.6c.465,2.814.7,4.55,1.051,7.573.507,4.361,1.01,8.727,1.693,13.065.509,3.225.982,6.586,2.541,9.5l-.273-1.01.029.339.586-1.415-.148.175.883-.514-.22.043,1.945.515-.149-.128c-1.949-1.66-4.792,1.156-2.829,2.829Z"/><path class="a" d="M382.61,73.784a128.075,128.075,0,0,0-1.087,16.377c-.1,5.349-.116,10.722.21,16.064.156,2.558,4.158,2.576,4,0-.318-5.222-.311-10.474-.216-15.7a124.61,124.61,0,0,1,.95-15.675,2.064,2.064,0,0,0-1.4-2.46,2.016,2.016,0,0,0-2.461,1.4Z"/><path class="a" d="M404.2,75.983c-1.148,9.328-3.3,18.5-4.022,27.885-.2,2.567,3.805,2.554,4,0,.718-9.38,2.874-18.56,4.022-27.885a2.011,2.011,0,0,0-2-2,2.049,2.049,0,0,0-2,2Z"/><path class="c" d="M381.85,111.284c.137.726.293,1.447.446,2.095a2.15,2.15,0,0,0,2.6,1.782,168.387,168.387,0,0,0,17.86-6.383,2.675,2.675,0,0,0,1.212-3.331l-.017-.045a2.1,2.1,0,0,0-2.376-1.491c-3.971.868-13.813,3.147-18.15,4.423A2.54,2.54,0,0,0,381.85,111.284Z"/><path class="e" d="M265.773,226.338c-1.734-1.644-3.339-3.686-3.469-6.072,0,0-.03-.56-.075-1.413-.035-.012-.069-.017-.1-.032-2.083-.9-4.083-1.776-6.029-2.6-1.468-.387-2.962-.79-4.459-1.2l-3.5,1.11c-2.742.868-4.411,3.439-5.467,6.152a6.322,6.322,0,0,0-.419,2.883,5.605,5.605,0,0,0,3.256,4.758c2.627,1.33,4.934,2.572,7.151,3.77,3.077,1.662,5.982,3.237,9.335,4.837a11.765,11.765,0,0,0,4.481,1.183,5.336,5.336,0,0,0,4.233-1.542c1.6-1.778,1.272-4.646.022-6.683S267.508,227.982,265.773,226.338Z"/><path class="a" d="M260.3,220.266c.405,4.556,3.815,7.094,6.856,10.051a7.31,7.31,0,0,1,2.611,4.427,2.588,2.588,0,0,1-2.58,2.961c-2.057.177-3.985-.789-5.77-1.672-1.874-.926-3.723-1.9-5.565-2.888-1.938-1.041-3.869-2.095-5.813-3.123-1.606-.849-3.9-1.543-5.061-3-2.23-2.791.739-7.943,3.683-8.967,2.416-.84,1.377-4.706-1.063-3.857a11.658,11.658,0,0,0-7.354,10.964,7.685,7.685,0,0,0,3.356,5.947,70.668,70.668,0,0,0,6.922,3.7c2.32,1.25,4.632,2.514,6.977,3.718,2.279,1.169,4.623,2.523,7.174,2.97a8.241,8.241,0,0,0,7.057-1.548,6.882,6.882,0,0,0,1.85-6.637c-.572-2.794-2.575-4.929-4.619-6.779-1.839-1.664-4.422-3.585-4.661-6.27a2.052,2.052,0,0,0-2-2,2.015,2.015,0,0,0-2,2Z"/><path class="e" d="M341.858,218.785c-.406-2.355-2.858-3.878-5.23-4.161s-4.745.354-7.11.7a10.261,10.261,0,0,1-6.353-.708,1.664,1.664,0,0,1-.7.784c-3.524,1.948-7.439,3.821-10.982,5.41a.739.739,0,0,1-.156.037c-.429,1.135-.752,1.987-.752,1.987-1.019,2.69-.037,5.593,1.438,8.1a6.333,6.333,0,0,0,2,2.116,5.6,5.6,0,0,0,5.752.395c2.672-1.237,5.077-2.277,7.392-3.274,3.211-1.384,6.248-2.687,9.581-4.326a11.77,11.77,0,0,0,3.707-2.782A5.339,5.339,0,0,0,341.858,218.785Z"/><path class="a" d="M321.594,216c3.716,2.435,7.927,1.18,11.979.671a7.2,7.2,0,0,1,5.116.785,2.533,2.533,0,0,1,.715,3.646c-.989,1.65-2.8,2.593-4.472,3.4-1.772.856-3.565,1.667-5.367,2.457-1.854.814-3.718,1.606-5.575,2.414a49.125,49.125,0,0,1-5.733,2.5c-4.366,1.251-6.9-5.165-5.758-8.516.832-2.442-3.03-3.49-3.857-1.063-1.518,4.455.821,10.722,5.069,12.907,2.508,1.29,5.04.874,7.5-.238q3.462-1.563,6.945-3.069c2.29-.987,4.581-1.972,6.844-3.02a21.544,21.544,0,0,0,6.272-3.787,7.673,7.673,0,0,0,2.51-6.839,6.935,6.935,0,0,0-3.829-4.675c-2.73-1.358-5.691-1.07-8.6-.582-2.57.431-5.409,1.083-7.741-.446-2.16-1.415-4.166,2.047-2.019,3.454Z"/><path class="f" d="M295.855,192.925c.384.74.767,1.456,1.149,2.132,1.7,3.017,10.142,19.483,12.574,24.736a1.556,1.556,0,0,0,.764.865,1.455,1.455,0,0,0,1.137.148c3.543-1.589,7.458-3.462,10.982-5.41a1.755,1.755,0,0,0,.8-2.063c-5.031-16.51-8.548-26.144-14.915-44.6-3.114-9.028-7.876-22.594-8.874-32.039l-31.888,1.434a29.455,29.455,0,0,0,.715,4.018c-.39,1.806-.918,4.247-.918,4.247-3.7,21.974-11.126,43.78-17.936,64.987a2.211,2.211,0,0,0,.137,1.3,2.168,2.168,0,0,0,1.294,1.416c3.565,1.376,7.259,3,11.251,4.732a1.931,1.931,0,0,0,2.509-1.092c8.189-17.975,13.046-33.031,18.255-47.97,3.2,4.971,5.563,9.277,8.5,14.487C292.868,186.86,294.369,190.067,295.855,192.925Z"/><path class="a" d="M311.439,61.025a19.668,19.668,0,0,1,2.768,2.5,5.007,5.007,0,0,1,.563,2.724,18.487,18.487,0,0,1-.481,4.492,57.372,57.372,0,0,0-1.383,7.156,2.017,2.017,0,0,0,2,2,2.04,2.04,0,0,0,2-2,23.626,23.626,0,0,1,.58-2.948q.38-1.81.76-3.621a19.706,19.706,0,0,0,.415-6.412,7.319,7.319,0,0,0-1.366-3.9,23.666,23.666,0,0,0-3.027-2.822,2.051,2.051,0,0,0-2.829,0,2.02,2.02,0,0,0,0,2.829Z"/><path class="a" d="M303.632,52c1.105,1.933,2.328,3.8,3.538,5.665.63.972,1.261,1.943,1.881,2.922q.468.736.925,1.479c.146.238.29.476.434.716.07.116.14.233.209.35q.237.505.091-.1a.665.665,0,0,1,.32-.839l-.176.134a5.919,5.919,0,0,0-.562.429q-.622.474-1.247.946-1.326,1-2.662,2-.613.456-1.232.907a3.382,3.382,0,0,0-.551.4l-.171.123a5.49,5.49,0,0,1,.731.1l.18.122-.384-.547c-.152-.215-.3-.431-.456-.646q-.543-.768-1.094-1.53a2.057,2.057,0,0,0-2.736-.718,2.015,2.015,0,0,0-.717,2.736q.688.953,1.364,1.914a7.2,7.2,0,0,0,1.642,1.989c1.486.989,2.913.457,4.211-.491,2.1-1.533,4.225-3.065,6.25-4.7,1.491-1.2,1.424-2.96.514-4.485-.746-1.251-1.53-2.479-2.32-3.7-1.534-2.381-3.122-4.734-4.528-7.195-1.277-2.234-4.734-.221-3.454,2.019Z"/><path class="a" d="M287.346,48.693a5.023,5.023,0,0,0-4.771-1.488,4.545,4.545,0,0,0-3.181,3.412,8.025,8.025,0,0,0,2.11,7.292,10.335,10.335,0,0,0,3.765,2.309,2.008,2.008,0,0,0,2.46-1.4,2.058,2.058,0,0,0-1.4-2.461c-.083-.031-.166-.064-.249-.1.275.117.314.133.117.046-.115-.056-.232-.108-.346-.166a8.284,8.284,0,0,1-.751-.426c-.1-.065-.2-.135-.3-.2-.351-.232.347.3.033.028-.2-.176-.4-.35-.585-.545-.077-.082-.149-.169-.225-.252-.254-.28.263.4.006.005-.133-.206-.267-.407-.381-.624-.035-.066-.216-.515-.095-.173s-.045-.13-.067-.193a6.7,6.7,0,0,1-.208-.749,1.533,1.533,0,0,0-.079-.428l.036.28q-.015-.129-.027-.258c-.011-.125-.02-.25-.021-.376a2.177,2.177,0,0,0,.026-.507l-.036.275c.015-.086.032-.171.052-.255.03-.127.075-.249.108-.375.075-.2.056-.163-.059.12.036-.077.075-.152.116-.226l.064-.108q.18-.264-.1.1s.256-.253.253-.259q-.361.265-.082.084.293-.149-.1.033l.132-.04q.329-.069-.115,0c.007,0,.442-.011.437,0-.282-.046-.308-.047-.08,0,.071.016.141.034.211.057.483.147-.225-.165.084.04a1.944,1.944,0,0,1,.167.105c.122.084.075.044-.143-.118.054-.018.344.321.387.365a2,2,0,1,0,2.828-2.828Z"/><path class="a" d="M280.949,56.214a7.606,7.606,0,0,1-.459,1.55l.2-.478a7.976,7.976,0,0,1-1.023,1.739l.313-.4a8.486,8.486,0,0,1-1.435,1.425l.4-.313a8.7,8.7,0,0,1-1.848,1.08l.477-.2c-.542.225-1.095.426-1.649.62a2.132,2.132,0,0,0-1.195.919A2,2,0,0,0,277,65.088a18.482,18.482,0,0,0,2.968-1.234A10.13,10.13,0,0,0,282.2,62.14a9.509,9.509,0,0,0,2.6-4.863,2.151,2.151,0,0,0-.2-1.541,2,2,0,0,0-3.656.478Z"/><path class="a" d="M287.659,51.116a19.274,19.274,0,0,1,3.924-4.452q.523-.466,1.066-.912c.125-.1.473-.375.47-.378a.5.5,0,0,1-.448.1q-1.4-.726-.408-.041a2.961,2.961,0,0,0,3.431-.149c1.391-1.025,2.785-2.046,4.117-3.148a13.12,13.12,0,0,0,3.4-3.66,2,2,0,0,0-3.454-2.019c-.074.14-.158.27-.24.4-.256.423.168-.153-.113.152-.245.266-.482.536-.739.79-.637.629-1.32,1.211-2.015,1.774-.714.578-1.069.844-1.855,1.427l-.825.607a2.807,2.807,0,0,0-.353.259l-.208.155a.888.888,0,0,1,1.011.1q.586.378-.154-.159a1.25,1.25,0,0,0-.42-.223,2.813,2.813,0,0,0-1.177-.27,3.007,3.007,0,0,0-1.772.6,28.088,28.088,0,0,0-2.506,2.088,22.184,22.184,0,0,0-4.188,4.934c-1.307,2.224,2.149,4.24,3.454,2.019Z"/><path class="a" d="M304.764,41.217a17.943,17.943,0,0,0-8.036-13.683A19.307,19.307,0,0,0,280.7,25.1c-11.688,3.13-18.947,16.413-14.743,27.887a24.572,24.572,0,0,0,5.713,8.778,25.341,25.341,0,0,1,3.57,3.733c.717,1.092.553,2.028.3,3.315-.5,2.514,3.354,3.59,3.857,1.064.509-2.554.528-4.785-1.1-6.952-1.759-2.348-4.211-4.054-5.915-6.451-3.024-4.253-4.466-9.429-3.124-14.588a18.273,18.273,0,0,1,9.105-11.614,16.279,16.279,0,0,1,3.4-1.315q.666-.178,1.344-.309c.159-.031.319-.06.479-.087.073-.013.916-.134.5-.079a14.872,14.872,0,0,1,7.97.982,14.229,14.229,0,0,1,8.715,11.75c.221,2.545,4.224,2.568,4,0Z"/><path class="a" d="M299.785,48.46c.391.928.464,3.157-1.241,3.539-2.284.243-2.715-2.414-2.092-3.756C296.962,47.145,298.763,46.509,299.785,48.46Z"/><path class="a" d="M300.765,41.428c.675,3.612-.264,7.779,2.077,10.946.25.339,1.607,1.985,2.093,1.777-.037.015.629-.748-.038-.269a5.121,5.121,0,0,0-.891.957c-1.491,1.857-1.137,4.192-1.647,6.389-.474,2.044-1.308,3.112-3.34,3.612a10.311,10.311,0,0,1-2.57.308,8.214,8.214,0,0,0-2.835-.043c-1.9.644-2.012,2.919-2.629,4.524-.3.79-.633,1.571-.949,2.357a2.013,2.013,0,0,0,1.4,2.46,2.049,2.049,0,0,0,2.46-1.4c.287-.713.58-1.424.862-2.139.186-.475.359-.955.514-1.442.095-.3.185-.607.268-.913q.051-.191.1-.381.091-.357-.076.274l-.883.514c-.27-.018-.213,0,.17.044q.437.066.876.109a10.15,10.15,0,0,0,1.1.029,16.291,16.291,0,0,0,2.678-.32,8.568,8.568,0,0,0,4.436-2.085,9.332,9.332,0,0,0,2.374-4.9,28.03,28.03,0,0,0,.4-2.8,2.78,2.78,0,0,1,.566-1.9c1.15-1.308,2.11-2.473,1.456-4.32a4.743,4.743,0,0,0-2.026-2.256,2.434,2.434,0,0,1-.9-.959,9.628,9.628,0,0,1-.729-3.678,46.356,46.356,0,0,0-.457-5.566c-.473-2.527-4.328-1.457-3.858,1.064Z"/><path class="f" d="M270.485,75.519c-1.376.881-2.621,2.094-3.927,3.087-3,2.286-10.458,12.075-12.517,15a16.786,16.786,0,0,0-3.448,9.958c.186,6,4.249,11.3,8.475,15.554,2.118,2.133,3.773,3.895,5.512,5.724l-3.115,8.79a2.663,2.663,0,0,0-.213,1.624,2.379,2.379,0,0,0,1.264,1.311c2.39,1.242,6.859,2.547,11.748,4.029,6.24,1.891,14.94,3.408,20.264.836,2.908-1.406,4.012-2.415,4.719-5.673a42.16,42.16,0,0,0,.187-5.979,136.628,136.628,0,0,1,.782-14.8c.412-2.95.752-5.045,1.093-7.147,3.322,1.57,6.5,2.22,9.791.284,5.175-3.043,5.292-9.462,6.044-14.758.175-1.234,1.848-15.166,1.548-15.2-3.592-.362-13.56-1.2-16.441-1.2H299.47c1.44,3.966,3.311,9.578,3.64,13.216.011.127.022.254.031.381-2.285,0-5.27,0-5.27,0a124.294,124.294,0,0,0-4.852-12.283,21.635,21.635,0,0,0-7.88-7.657,75.43,75.43,0,0,0-6.676-4.035,1.763,1.763,0,0,0-2.221.941c-.7,1.109-2.188,3.222-2.875,4.273Z"/><path class="a" d="M299.868,71.119a10.986,10.986,0,0,0,.6,3.6,18.909,18.909,0,0,0,1.428,3.346,2.018,2.018,0,0,0,2.736.718,2.043,2.043,0,0,0,.718-2.737q-.393-.723-.716-1.48l.2.478a14.117,14.117,0,0,1-.974-3.361l.072.532a6.565,6.565,0,0,1-.062-1.094,2.015,2.015,0,0,0-2-2,2.041,2.041,0,0,0-2,2Z"/><path class="b" d="M84.47,160.335a34.712,34.712,0,0,0,1.546-5.422,6.14,6.14,0,0,0-1.093-4.478c-2.254-2.853-3.359-3.5-5.784-6.21a3.643,3.643,0,0,1,.214-4.265c2.758-2.6,7.01-6.877,8.556-9.276l.168-.261a23.82,23.82,0,0,1,2.149,1.274,10.9,10.9,0,0,1,2.719,2.726c.538.768,1.033,1.485,1.643,2.25.745.936,2.252,1.034,2.931,2.019.906,1.312.067,3.057-.467,4.559a1.146,1.146,0,0,0-.09.639,1.259,1.259,0,0,0,.464.6,15.054,15.054,0,0,1,3.646,4.769,8.379,8.379,0,0,1,.672,4.926,6.98,6.98,0,0,1-2.2,3.969,10.262,10.262,0,0,1-5.944,2.18c-.629.071-2.707.194-4.666.363a6.985,6.985,0,0,0-2.412.64,3.241,3.241,0,0,0-1.78,2.888Z"/><path class="e" d="M43.1,145.054a89.45,89.45,0,0,0-10.158,8.638c-5.468,5.149-11.306,11.152-11.484,18.66-.224,6.482,3.388,14.282,4.239,16.187a38.26,38.26,0,0,1,2.465,10.352,5.023,5.023,0,0,1-2.428,4.681,30.663,30.663,0,0,1-4.3,1.363c-4.556,1.255-8.188,2.823-11.19,5.409a19.555,19.555,0,0,0,8.8,8.353,109.48,109.48,0,0,0,17.563-4.7,7.352,7.352,0,0,0,3.87-3.969,11.949,11.949,0,0,0,.876-3.938c.2-1.959.443-4.7.658-7.335,2.1,1,4.815,2.42,5.427,2.824,2.629,1.733,3.06,5.072,2.739,7.59-.24,4.407-.939,9.7-1.6,14.848,1.57,1.349,9.677,2.248,12.42,1.094,1-6.438,6.488-20.487,6.012-25.461-.355-3.719-.957-5.221-1.914-6.892a33.4,33.4,0,0,0-3.2-4.7,70.761,70.761,0,0,0-4.91-5.376c3.545-2.082,7.407-4.8,10.816-7.025q-.323,4.747-.644,9.493a17.151,17.151,0,0,0,.335,6.192,17.158,17.158,0,0,0,3.434,5.545l4.752,5.847c3.092,3.8,6.291,10.049,7.562,12.745.843,1.968,1.7,4.055,1.434,6.179a10.122,10.122,0,0,1-.851,2.742q-.462,1.058-1,2.079a5.008,5.008,0,0,0,1.363,6.264,20.385,20.385,0,0,0,1.7,1.224c1.188.738,2.521,1.07,3.3.229,2.837-3.054,6.3-9.343,5.609-13.843a24.079,24.079,0,0,0-1.61-5.929c-1.164-3.9-2.578-7.194-3.742-11.094a127.942,127.942,0,0,1-3.61-14c-1.265-7.078-1.165-20.525-1.089-25.1l.105-4.76a20.736,20.736,0,0,0,1.168-4.553,6.14,6.14,0,0,0-1.093-4.478c-2.254-2.853-3.359-3.5-5.784-6.21a3.643,3.643,0,0,1,.214-4.265c2.758-2.6,7.01-6.877,8.556-9.276l.167-.262a16.581,16.581,0,0,0-11.456-1.777,16.816,16.816,0,0,0-6.576,2.555,19.3,19.3,0,0,0-4.62,4.975L61.636,139.7c-4.2-.164-11.056.858-15.828,3.629C44.882,143.869,43.982,144.446,43.1,145.054Z"/><path class="b" d="M84.147,232.706a5.006,5.006,0,0,1-1.327-6.233q.542-1.02,1-2.08a11.708,11.708,0,0,0,.747-2.153,12.989,12.989,0,0,0,10.271.237c-.382,4.183-3.246,9.116-5.657,11.712-.781.841-2.114.509-3.3-.229a20.42,20.42,0,0,1-1.7-1.225Z"/><path class="a" d="M93.332,138.87c-.837.491-1.791,1.045-2.72,1.626a.459.459,0,0,0,.173.845c1.845.267,4.721.8,6.192,2.167a1.728,1.728,0,0,1,.075-.257c.534-1.5,1.373-3.247.467-4.559a4.4,4.4,0,0,0-1.816-1.209l-.721.392C94.543,138.158,93.972,138.5,93.332,138.87Z"/><path class="a" d="M86.182,129.675a46.891,46.891,0,0,1-6.546,7.239c-1.145,1.121-2.407,2.079-2.857,3.689a5.541,5.541,0,0,0,.634,4.631,33.8,33.8,0,0,0,3.605,3.794,11.158,11.158,0,0,1,2.8,3.494c.847,2.332-.49,4.89-1.274,7.282-.805,2.451,3.057,3.5,3.857,1.063s1.839-4.918,1.612-7.548c-.3-3.523-2.93-5.891-5.3-8.25-.844-.839-2.374-1.776-2.144-3.108.193-1.121,1.89-2.2,2.683-2.992a48.216,48.216,0,0,0,6.388-7.275c1.423-2.154-2.04-4.16-3.454-2.019Z"/><path class="a" d="M93.973,136.149c-.883.566-1.8,1.079-2.7,1.611-.56.33-1.132.65-1.672,1.011a2.5,2.5,0,0,0-1.1,2.832,2.464,2.464,0,0,0,2.052,1.711c.449.069.9.146,1.342.236a15.154,15.154,0,0,1,2.772.808l-.478-.2a6.828,6.828,0,0,1,1.517.856l-.4-.312a4.784,4.784,0,0,1,.362.32,2,2,0,0,0,2.829-2.829,9.3,9.3,0,0,0-3.861-2.083,18.337,18.337,0,0,0-1.805-.442c-.282-.056-.566-.106-.85-.153a4.079,4.079,0,0,1-.8-.142l.478.2-.058-.033.405.313a.442.442,0,0,1-.095-.088l.313.405a.456.456,0,0,1-.065-.108l.2.478a.464.464,0,0,1-.034-.121l.072.531a.475.475,0,0,1,0-.125l-.071.531a.435.435,0,0,1,.034-.122l-.2.477a.461.461,0,0,1,.07-.111l-.312.405.049-.049-.405.313a27.954,27.954,0,0,1,2.432-1.466c.671-.393,1.346-.781,2-1.2a2,2,0,0,0-2.019-3.453Z"/><path class="a" d="M65.984,172.959l-.759,11.209c-.238,3.5-.384,6.865,1.344,10.047,1.6,2.95,4.1,5.507,6.211,8.1a57.634,57.634,0,0,1,5.158,7.378c1.248,2.143,2.448,4.341,3.484,6.6a11.552,11.552,0,0,1,1.3,4.455c.022,1.707-.919,3.231-1.631,4.72a7.134,7.134,0,0,0,1.676,8.687c2.34,1.986,5.763,3.855,8.219,1.017,3.5-4.047,6.538-9.861,5.733-15.352a53.906,53.906,0,0,0-2.941-9.963c-1.2-3.413-2.356-6.821-3.37-10.3a80.414,80.414,0,0,1-3.374-17.7c-.31-5.026-.364-10.068-.325-15.1a16.415,16.415,0,0,1,.039-2.625c.272-1.532,2.326-1.451,3.54-1.545,3.083-.237,6.332-.274,9.078-1.883a9.093,9.093,0,0,0,4.449-8.664,11.245,11.245,0,0,0-1.8-5.2,18.815,18.815,0,0,0-1.492-2.036c-.524-.628-1.453-1.222-1.838-1.924l.273,1.009a4.762,4.762,0,0,1,.444-1.269,9.5,9.5,0,0,0,.414-1.581,4.858,4.858,0,0,0-.383-3.021,4.742,4.742,0,0,0-2.2-2.009,4.133,4.133,0,0,1-1.772-1.47,17.869,17.869,0,0,0-4.232-4.57,22.373,22.373,0,0,0-5.617-2.753,19.758,19.758,0,0,0-12.388.239,18,18,0,0,0-9.533,7.71c-1.4,2.172,2.065,4.18,3.454,2.019a13.817,13.817,0,0,1,8.138-6.162,15.51,15.51,0,0,1,10.549.531,13.974,13.974,0,0,1,4.516,2.866c1.273,1.309,2.016,3.165,3.494,4.262.471.349,1.629.631,1.953,1.094s-.077,1.274-.252,1.782a5.181,5.181,0,0,0-.551,2.6,4.253,4.253,0,0,0,1.607,2.295c2.274,2.2,4.365,5.761,2.641,8.9-1.44,2.619-4.6,2.925-7.288,3.12-3.587.26-8.35.42-9.119,4.866a41,41,0,0,0-.134,6.966,133.789,133.789,0,0,0,.962,18.056c1.118,7.954,3.86,15.664,6.487,23.216.686,1.973,1.44,3.959,2.008,5.967a13.746,13.746,0,0,1,.695,4.737c-.241,3.049-1.825,6.044-3.522,8.525a17.183,17.183,0,0,1-1.174,1.54c-.1.111-.2.219-.293.329-.221.251.047.014.159.016a2.378,2.378,0,0,1-1.135-.451c-1.279-.776-2.622-1.788-2.641-3.421a5.324,5.324,0,0,1,.817-2.361,23.058,23.058,0,0,0,1.207-2.871,9.8,9.8,0,0,0-.037-5.829,43.2,43.2,0,0,0-3.909-8.424,57.689,57.689,0,0,0-5.681-8.562q-2.005-2.467-4.01-4.934a18.9,18.9,0,0,1-2.981-4.362,12.44,12.44,0,0,1-.542-5.658c.133-2.173.293-4.344.44-6.517l.429-6.335c.174-2.57-3.826-2.559-4,0Z"/><path class="a" d="M54.23,182.749c4.438,4.4,9.766,9.351,10.652,15.744a18.374,18.374,0,0,1-.752,7.305c-.776,3.164-1.732,6.283-2.654,9.406a76.287,76.287,0,0,0-2.408,9.373l1.4-1.4a13.2,13.2,0,0,1-5.809.348,21.781,21.781,0,0,1-2.952-.45,13.847,13.847,0,0,1-1.388-.386c-.046-.015-.628-.331-.325-.092l.586,1.414c.509-3.971,1.042-7.944,1.388-11.934.267-3.081.663-6.2-.732-9.088-1.094-2.264-3.1-3.377-5.223-4.476a33.081,33.081,0,0,0-5.847-2.712c-2.481-.7-3.54,3.154-1.064,3.857.162.046.317.106.475.165.014,0,.273.112.1.038-.219-.091.2.089.237.107.638.289,1.27.59,1.9.9,1.248.611,2.489,1.239,3.707,1.907a4.639,4.639,0,0,1,2.261,2.21,10.011,10.011,0,0,1,.366,4.787c-.136,2.185-.358,4.365-.606,6.541-.273,2.4-.748,4.824-.9,7.232-.2,3.3,4.876,3.638,7.25,3.905a25.237,25.237,0,0,0,4.647.138c1.29-.095,3.449-.205,4.19-1.471a6.763,6.763,0,0,0,.481-1.969c.15-.7.32-1.4.5-2.1.4-1.563.847-3.113,1.3-4.661.953-3.253,1.957-6.494,2.8-9.778a26.186,26.186,0,0,0,1.223-7.8,20.026,20.026,0,0,0-3.47-10.144,61.707,61.707,0,0,0-8.495-9.751c-1.83-1.814-4.66,1.013-2.828,2.829Z"/><path class="a" d="M61.636,137.7a32.792,32.792,0,0,0-20.023,5.963,91.118,91.118,0,0,0-9.43,8,69.652,69.652,0,0,0-7.759,8.205,22.969,22.969,0,0,0-4.626,9.483,24.6,24.6,0,0,0,.7,10.813,56.556,56.556,0,0,0,3.076,8.5,32.954,32.954,0,0,1,2.467,9.079c.186,1.5.239,3.292-1.317,4.1a27.808,27.808,0,0,1-4.873,1.462,29.882,29.882,0,0,0-11.022,5.622,2.021,2.021,0,0,0-.313,2.424A21.707,21.707,0,0,0,17,219.9a7.448,7.448,0,0,0,1.506.73,4.462,4.462,0,0,0,1.986-.175c1.16-.224,2.317-.46,3.471-.716q3.13-.692,6.213-1.578c2.184-.63,4.357-1.317,6.5-2.077a9.144,9.144,0,0,0,4.88-3.882,14.13,14.13,0,0,0,1.826-6.465c.233-2.325.432-4.653.625-6.982.211-2.565-3.79-2.551-4,0-.231,2.792-.352,5.645-.789,8.414a7.551,7.551,0,0,1-1.438,3.492,5.7,5.7,0,0,1-3.062,1.873,118.85,118.85,0,0,1-16.212,4.239l1.541.2a18.117,18.117,0,0,1-8.077-7.636l-.313,2.424a24.906,24.906,0,0,1,9.05-4.532c3-.905,6.571-1.275,8.368-4.167,1.954-3.143.862-7.338-.038-10.664a68.278,68.278,0,0,0-2.735-7.472c-2.423-6.065-4.288-12.861-1.074-18.987a34.915,34.915,0,0,1,6.437-8.228c2.772-2.782,5.662-5.49,8.668-8.018a32.239,32.239,0,0,1,10.545-6.408,31.718,31.718,0,0,1,10.754-1.58c2.575.083,2.572-3.917,0-4Z"/><path class="a" d="M58.441,184.137c3.409-2.041,6.665-4.324,9.984-6.506a2,2,0,0,0-2.019-3.454c-3.319,2.183-6.575,4.465-9.984,6.506a2,2,0,0,0,2.019,3.454Z"/><path class="a" d="M17.414,218.305c-.542,2.061-1.33,4.16-1.284,6.322a7.829,7.829,0,0,0,.745,3.185c.516,1.1,1.334,2.02,1.858,3.124a6.932,6.932,0,0,1,.728,2.984c0,1.027-.387,1.379-1.389,1.617a8.444,8.444,0,0,1-5.1-.673,7.683,7.683,0,0,1-2.931-2.027c-1.084-1.356-1.191-3.281-1.788-4.868a44.7,44.7,0,0,0-2.534-5.49c-.386-.716-.787-1.425-1.208-2.12-.346-.572-.587-.81-.537-1.283.128-1.21,1.662-2.662,2.633-3.55a35.938,35.938,0,0,1,4.509-3.4c2.139-1.413.137-4.878-2.019-3.454-3.274,2.162-7.364,4.83-8.776,8.686a5.594,5.594,0,0,0,.8,5.129,44.194,44.194,0,0,1,2.959,5.749c.844,2.028,1.053,4.359,2.24,6.228a10.357,10.357,0,0,0,4.467,3.782c3.682,1.692,10.66,2.78,12.387-2.19,1.014-2.918-.363-6.44-1.978-8.864a4.7,4.7,0,0,1-1.024-3.53,33.863,33.863,0,0,1,1.1-4.3c.655-2.492-3.2-3.555-3.857-1.064Z"/><path class="a" d="M59.967,226.8c2.3,3,5.531,4.565,8.826,6.254,1.11.569,1.948,1.1,1.7,2.42-.058.3-.659.7-.906.8a12.724,12.724,0,0,1-4.914.432,57.014,57.014,0,0,1-5.835-.743,22.226,22.226,0,0,0-5.83-.04c-1.271.138-3.107.206-4.149-.747-1.128-1.031-.674-2.715-.35-3.915.545-2.022,1.22-4.007,1.567-6.077a2.061,2.061,0,0,0-1.4-2.461,2.017,2.017,0,0,0-2.46,1.4c-.662,3.951-3.193,8.167-1.369,12.136a6.645,6.645,0,0,0,4.807,3.52c2.214.547,4.318-.231,6.531-.12,4.668.234,9.181,1.8,13.88.644a5.47,5.47,0,0,0,4.053-7.371c-.812-2.226-2.92-3.1-4.862-4.111-2.059-1.075-4.386-2.14-5.836-4.033a2.067,2.067,0,0,0-2.736-.718,2.014,2.014,0,0,0-.718,2.737Z"/><path class="a" d="M84.7,224.451a14.972,14.972,0,0,0,9.742.3,2,2,0,0,0-1.063-3.857,9.944,9.944,0,0,1-2.081.474c.57-.048-.119,0-.227.013-.152.013-.3.023-.457.03q-.534.025-1.068.007c-.357-.012-.711-.043-1.065-.08-.516-.053.436.082-.073-.013-.2-.037-.4-.07-.6-.112a13.137,13.137,0,0,1-2.044-.615,2.008,2.008,0,0,0-2.46,1.4,2.057,2.057,0,0,0,1.4,2.461Z"/><path class="a" d="M197.288,111.575a18.069,18.069,0,0,1-2.887,5.648c-1.272,1.9-2.5,3.839-3.8,5.726s-2.668,3.759-4.124,5.545c-.794.973-1.6,1.939-2.47,2.851a3.471,3.471,0,0,1-.782.7,2.721,2.721,0,0,0-.368.137c-.384.2-.6-.082-.016.152l1.4,1.4-.024-.126a2.019,2.019,0,0,0-2.46-1.4,2.041,2.041,0,0,0-1.4,2.46c.32,1.681,2.116,1.805,3.429,1.411a6.667,6.667,0,0,0,3.049-1.908,69.356,69.356,0,0,0,5.672-7.015c1.692-2.329,3.228-4.757,4.829-7.148,1.539-2.3,3.147-4.644,3.806-7.371.6-2.5-3.252-3.569-3.857-1.064Z"/><path class="a" d="M181.429,165.636c2.158,4.27,4.368,8.613,6.126,13.065a29.345,29.345,0,0,1,1.673,14.684c-.926,7.522-1.748,15.068-2.294,22.628a37.643,37.643,0,0,0-.127,8.135,2.013,2.013,0,0,0,2.46,1.4,2.051,2.051,0,0,0,1.4-2.46c.117.791,0-.371-.008-.611-.012-.508,0-1.017.01-1.524.037-1.453.127-2.905.227-4.355.264-3.822.626-7.638,1.015-11.449.889-8.707,3-17.734-.022-26.249a133.593,133.593,0,0,0-7-15.28c-1.161-2.3-4.613-.275-3.453,2.019Z"/><path class="a" d="M151.707,137.993c-1.974,1.368-2.521,3.8-3.126,6a29.09,29.09,0,0,0-1.16,7.68c0,5.287,2.438,9.685,5.237,14,1.4,2.152,4.861.149,3.454-2.019-2.208-3.4-4.466-6.913-4.669-11.085a22.08,22.08,0,0,1,.654-6.186c.246-1.035.539-2.059.86-3.073.158-.5.3-1.538.769-1.86,2.1-1.456.1-4.925-2.019-3.454Z"/><path class="a" d="M152.941,166.293c-.477,3.926-.929,7.835-1.092,11.789-.067,1.629-.119,3.258-.183,4.887a29.643,29.643,0,0,1-.2,4.011c-.248,1.369-1.935,2.181-3.085,2.776a28.1,28.1,0,0,0-5.592,3.754,70.359,70.359,0,0,0-8.082,8.7c-1.147,1.4-2.264,2.827-3.391,4.244a14.061,14.061,0,0,1-2,2.549,9.717,9.717,0,0,1-2.67.86c-2.429.814-1.387,4.679,1.063,3.857.854-.286,1.744-.46,2.585-.785a6.018,6.018,0,0,0,2.749-2.207q1.6-2.1,3.257-4.161a93.81,93.81,0,0,1,8.124-9.136,23.187,23.187,0,0,1,5.635-4.047A11.206,11.206,0,0,0,154.7,189.7a9.356,9.356,0,0,0,.87-4.447c.084-1.765.146-3.531.211-5.3.168-4.588.609-9.11,1.162-13.665a2.01,2.01,0,0,0-2-2,2.049,2.049,0,0,0-2,2Z"/><path class="a" d="M134.44,219.381c-1.369,3.385.533,7.163,3.279,9.21.809.6,3.451,1.719,3.323,3.02-.127,1.277-2.651,1.426-3.534,1.532a9.475,9.475,0,0,1-5.136-.473,8.228,8.228,0,0,1-3.528-3.315,26.687,26.687,0,0,0-3.661-4.546,12.724,12.724,0,0,1-3.227-4.171,4.7,4.7,0,0,1,1.009-4.7,8.2,8.2,0,0,1,4.619-2.225c2.519-.522,1.453-4.379-1.063-3.857-4.193.87-7.991,3.536-8.717,8.012a8.768,8.768,0,0,0,1.679,6.517c1.364,1.92,3.224,3.367,4.691,5.191,1.423,1.77,2.322,3.792,4.144,5.236a11.347,11.347,0,0,0,6.068,2.428c3.869.348,10.962-.686,10.629-5.952-.184-2.9-2.652-4.317-4.781-5.8-1.635-1.14-2.726-3.1-1.937-5.047a2.013,2.013,0,0,0-1.4-2.461,2.049,2.049,0,0,0-2.46,1.4Z"/><path class="a" d="M186.809,223.372c-.6,2.919,3.035,4.5,5.148,5.52,1.463.7,2.959,1.335,4.455,1.963a17.832,17.832,0,0,1,4.108,1.927,1.9,1.9,0,0,1-.056,3.235c-1.608,1.189-4.025.664-5.8.274a39.074,39.074,0,0,0-7.089-1.014c-2.2-.076-4.43.078-6.617-.179-1.54-.182-3.484-.607-4.428-1.966-1.242-1.787-.031-4.206.923-5.819,1.315-2.22-2.142-4.234-3.453-2.018a11.1,11.1,0,0,0-1.864,7.272,7.066,7.066,0,0,0,3.541,5.036c4.286,2.457,9.591,1.3,14.268,1.83,4.738.535,10.752,3.178,14.288-1.615a5.676,5.676,0,0,0,.311-6.486c-1.18-1.847-3.173-2.724-5.12-3.527-1.83-.755-3.662-1.508-5.447-2.367a24.95,24.95,0,0,1-2.607-1.4c-.243-.154-.579-.4-.613-.429-.077-.063-.238-.3-.322-.318.347.071.23,1.158.232,1.148.519-2.512-3.335-3.586-3.857-1.063Z"/><path class="a" d="M152.658,165.67a137.021,137.021,0,0,0,9.17,11.552c1.651,1.879,3.332,3.732,5.007,5.589a41.568,41.568,0,0,1,4.537,5.243,10.244,10.244,0,0,1,1.306,6.108c-.066,2.228-.118,4.454-.07,6.683a97.6,97.6,0,0,0,1,11.206c.354,2.559.747,5.112,1.125,7.668a11.475,11.475,0,0,1,.282,3.685c.047-.228-.356.62-.416.734-.2.386-.416.764-.605,1.157-1.114,2.308,2.334,4.339,3.453,2.018.4-.829.873-1.614,1.22-2.469a6.876,6.876,0,0,0,.323-3.065c-.138-2.491-.68-4.992-1.044-7.458a114.829,114.829,0,0,1-1.284-11.682c-.094-2.113-.1-4.229-.051-6.344.051-2.384.28-4.8-.4-7.126a15.877,15.877,0,0,0-3.907-6.255c-1.778-1.939-3.53-3.9-5.287-5.86a145.855,145.855,0,0,1-10.912-13.4c-1.47-2.089-4.94-.092-3.454,2.019Z"/><path class="a" d="M137.378,221.64c7.483-4.413,14.707-9.227,21.893-14.1,3.4-2.31,7.235-4.435,9.6-7.914,2.445-3.6,2.784-7.733,3.622-11.864.51-2.513-3.345-3.588-3.857-1.063-.772,3.8-.934,7.878-3.363,11.115A15.651,15.651,0,0,1,161.5,201.2q-2.684,1.827-5.371,3.645c-6.812,4.619-13.674,9.157-20.765,13.339-2.215,1.307-.205,4.766,2.019,3.454Z"/><path class="a" d="M163.03,158.747c.853,1.43,1.8,2.8,2.732,4.179.876,1.3,1.663,2.655,2.548,3.942a12.979,12.979,0,0,0,3.051,3.5,7.445,7.445,0,0,0,4.816.8,10.838,10.838,0,0,0,4.517-2.063,22.561,22.561,0,0,0,3.824-3.008,8.218,8.218,0,0,0,2.506-4.551c.16-1.714-.891-2.96-1.848-4.232l-.312,2.424c1.284-1.436,2.17-3.031,1.26-4.92a9.308,9.308,0,0,0-3.887-3.691,14.157,14.157,0,0,0-8.5-1.977,2.065,2.065,0,0,0-2,2,2.012,2.012,0,0,0,2,2,9.864,9.864,0,0,1,5.1.727,10.41,10.41,0,0,1,2.824,1.693c.073.065.9,1.036.9,1.037-.195.029.343-.679-.011-.415a6.652,6.652,0,0,0-.513.717,2.036,2.036,0,0,0-.313,2.424c.405.539,1.421,1.438,1.239,2.116a6.443,6.443,0,0,1-2.172,2.664,25.684,25.684,0,0,1-2.771,1.97,5.073,5.073,0,0,1-3.207,1.123,3.1,3.1,0,0,1-1.189-.137,4.161,4.161,0,0,1-.928-1,22.5,22.5,0,0,1-1.815-2.63c-1.417-2.266-3.025-4.408-4.395-6.7-1.318-2.209-4.777-.2-3.454,2.019Z"/><path class="a" d="M168.089,105.9c-1.466,3.418-3.63,6.48-5.253,9.819a19.49,19.49,0,0,0-1.933,5.355,15.017,15.017,0,0,0,.945,6.724c2.518,8.3,6.79,15.894,10.139,23.863a2.068,2.068,0,0,0,2.46,1.4,2.013,2.013,0,0,0,1.4-2.461c-3.172-7.547-7.174-14.764-9.729-22.563-.6-1.839-1.543-4.04-1.33-6.008a14.641,14.641,0,0,1,1.749-4.778c1.6-3.147,3.615-6.081,5.008-9.33a2.066,2.066,0,0,0-.717-2.736,2.014,2.014,0,0,0-2.736.718Z"/><path class="a" d="M187.414,115.455a73.173,73.173,0,0,0,4.328-6.027,5.831,5.831,0,0,0,.963-4.39c-.334-1.379-1.446-2.376-1.788-3.749a3.418,3.418,0,0,1,2.977-4.2,3.22,3.22,0,0,1,.76.005c.1.014.788.268.428.1a1.666,1.666,0,0,1,.782.578c-.04-.06.123.6-.01.54-.067-.028.178-.238.2-.2.062.1-.074.013-.121,0a2.052,2.052,0,0,0-2.46,1.4,2.019,2.019,0,0,0,1.4,2.461,4.053,4.053,0,0,0,3.981-1.071,4.447,4.447,0,0,0,.922-4.044c-.727-2.7-3.721-4.024-6.314-3.722a7.389,7.389,0,0,0-6.2,9.814,12.648,12.648,0,0,0,.993,2.065c.2.335.6.745.607,1.163,0,.646-.718,1.5-1.046,2.024-.358.573-.743,1.127-1.146,1.668-.893,1.2-1.839,2.357-2.711,3.572a2.017,2.017,0,0,0,.718,2.737,2.045,2.045,0,0,0,2.736-.718Z"/><path class="a" d="M197.74,104.729a5.7,5.7,0,0,0,2.875.686c.118,0,.24.027.358.024.137,0-.5-.1-.148-.009.379.1-.438-.157-.49-.308.011.031.08.081.1.106.135.154-.2-.357-.121-.15.09.229.259.451.365.678.117.25.223.5.34.755a3.646,3.646,0,0,0,3.24,2.242,4.343,4.343,0,0,0,3.174-1.68,7.451,7.451,0,0,0,1.644-3.242,6.421,6.421,0,0,0-.436-3.8,6.531,6.531,0,0,0-2.482-2.966,16.685,16.685,0,0,0-2.257-1.218c-1.967-.9-5.116-2.3-6.977-.473a2,2,0,0,0,2.828,2.829c.195-.192-.484.324-.245.185s-.553.2-.277.113c.479-.15-.524,0-.094,0,.15,0,.3.009.449.016.176.007.2.127-.286-.04a3.318,3.318,0,0,0,.347.065,9.866,9.866,0,0,1,1.132.322c.166.057.33.117.494.18.1.038.2.077.3.118.5.2-.3-.138.017.007a20.9,20.9,0,0,1,2.12,1.08c.232.138.454.289.678.438.244.163-.433-.363-.228-.177.086.077.175.15.257.231s.263.22.293.319q-.228-.3-.1-.125.06.084.114.171c.072.114.138.231.2.351l.058.117q.137.3-.048-.124a3.31,3.31,0,0,0,.217.685c.026.106.044.213.068.32.083.374-.034-.444-.021-.189.01.2.019.394.013.6-.011.379.106-.523.021-.145-.023.1-.041.2-.066.3-.047.186-.126.363-.175.548-.067.251.228-.478.057-.133-.048.1-.092.195-.143.29-.117.222-.253.429-.39.639-.216.33.319-.365.059-.075-.068.075-.132.153-.2.226-.112.117-.242.215-.355.329.4-.4.274-.189.109-.1a1.023,1.023,0,0,0-.226.124c.173-.2.476-.174.173-.088-.445.127.458-.01.15-.019-.288-.009.332.052.3.048-.3-.04-.014-.164.182.1a1.178,1.178,0,0,0-.215-.129c.2.022.393.318.13.063s.18.372.074.088a2.65,2.65,0,0,0-.134-.245c-.1-.2-.188-.408-.279-.613a5.83,5.83,0,0,0-1.054-1.708,3.293,3.293,0,0,0-2.208-.918,3.8,3.8,0,0,0-1.01-.029c-.148.028.694.129.419.056-.11-.03-.224-.047-.334-.076s-.213-.065-.321-.095c-.341-.095.419.24-.019-.025a2,2,0,0,0-2.019,3.454Z"/><path class="a" d="M203.2,106.52c.1-.8.019-.209-.039,0-.05.176-.11.35-.174.522a1.58,1.58,0,0,1-.107.273c.053-.086.2-.461.065-.157-.073.164-.149.328-.229.489a9.36,9.36,0,0,1-.485.884c-.033.052-.069.1-.1.154-.132.21.317-.392.145-.184-.146.177-.291.352-.45.517-.142.149-.295.284-.448.422-.3.267.389-.259.052-.045-.094.06-.185.121-.281.177a1.093,1.093,0,0,1-.3.154l.27-.112c-.071.029-.143.055-.215.079.056.039.528-.027.13-.013-.117,0-.234-.006-.351-.006-.247,0,.469.1.12.018-.116-.027-.234-.049-.349-.08s-.228-.074-.343-.108c-.4-.119.413.2.037.021a6.75,6.75,0,0,1-.61-.328c-.078-.049-.155-.1-.231-.152-.386-.266.312.26.032.031a2.154,2.154,0,0,0-1.414-.586,2,2,0,0,0-1.414,3.414,7.413,7.413,0,0,0,3.995,1.753,5.093,5.093,0,0,0,3.906-1.573,8.217,8.217,0,0,0,1.715-2.332,9.845,9.845,0,0,0,1.072-3.228,1.989,1.989,0,0,0-.586-1.414,2,2,0,0,0-2.828,0,2.34,2.34,0,0,0-.586,1.414Z"/><path class="a" d="M181.186,151.876c.386-3.434.562-6.89.845-10.333a79.658,79.658,0,0,1,2.079-12.057c2.04-8.528,3.852-17.2,2.561-25.994a49.137,49.137,0,0,0-1.535-7.44c-.625-2-1.957-4.1-1.78-6.246.211-2.565-3.791-2.551-4,0-.164,1.991.655,3.862,1.344,5.68a38.158,38.158,0,0,1,1.635,6.31,44.573,44.573,0,0,1,.556,12.625c-.772,8.753-3.938,17.058-4.747,25.809-.358,3.878-.522,7.775-.958,11.646a2.01,2.01,0,0,0,2,2,2.047,2.047,0,0,0,2-2Z"/><path class="a" d="M183.2,90.422a10.133,10.133,0,0,1,.922-3.241l-.717.717.288-.18-1.009.273c.789-.054,1.6.09,2.421,0a13.874,13.874,0,0,0,2.425-.453,7.215,7.215,0,0,0,3.978-2.5c1.692-2.269,2.076-5.853,1.635-8.6-.333-2.079-.878-4.133-1.328-6.189-.236-1.078-.476-2.157-.667-3.244-.037-.209-.078-.418-.1-.629.089.733-.019-.655-.024-.711a20.908,20.908,0,0,0-.508-3.116c-.612-2.5-4.47-1.44-3.857,1.064.368,1.505.381,3.036.653,4.555.2,1.1.441,2.194.681,3.286.273,1.243.555,2.484.827,3.727.106.483.211.966.309,1.451.048.239.134,1.344.125.6a15.946,15.946,0,0,1-.327,4.008c-.4,1.612-1.288,2.155-2.83,2.547-1.5.382-3.414-.192-4.707.658-1.409.926-1.754,3.405-2.043,4.915-.482,2.515,3.372,3.593,3.857,1.063Z"/><path class="a" d="M190.681,63.3a17.008,17.008,0,0,0-2.326-7.016,11.2,11.2,0,0,0-4.176-3.465A21.366,21.366,0,0,0,168.122,51.6a17.25,17.25,0,0,0-6.629,4.364,20.3,20.3,0,0,0-4.823,6.971c-2.354,5.971-1.348,12.529-1.12,18.756.115,3.166-.191,6.243,2.649,8.355a8.131,8.131,0,0,0,4.006,1.338c1.7.234,3.412.4,5.129.522,2.569.177,2.558-3.824,0-4-1.215-.084-2.428-.186-3.637-.329a8.213,8.213,0,0,1-2.859-.566c-1.833-.989-1.226-3.614-1.288-5.32-.193-5.28-1.075-10.783.391-15.96a13.365,13.365,0,0,1,3.182-5.769,17.9,17.9,0,0,1,5.367-4.234c3.866-1.707,8.614-1.378,12.513.046a9,9,0,0,1,4,2.661c-.231-.292.148.25.214.373a10.488,10.488,0,0,1,.61,1.446,21.019,21.019,0,0,1,1,4.114,2.013,2.013,0,0,0,2.46,1.4,2.052,2.052,0,0,0,1.4-2.46Z"/><path class="a" d="M170.359,77.221c-.088.327-.215.639-.335.956s.2-.446.036-.085c-.048.105-.092.212-.139.317q-.139.312-.285.623c-.482,1.037-.99,2.062-1.488,3.091a38.847,38.847,0,0,0-2.743,6.513,2,2,0,1,0,3.857,1.063c.127-.465.283-.921.453-1.372.1-.257.2-.511.3-.766.141-.349-.111.245-.006.013.061-.134.117-.271.176-.407.49-1.114,1.018-2.211,1.55-3.305a32.922,32.922,0,0,0,2.478-5.578,2,2,0,0,0-3.857-1.063Z"/><path class="a" d="M187.749,61.307c-1.538.16-3.079.281-4.619.419a15.761,15.761,0,0,0-5,.849,8.026,8.026,0,0,0-3.259,3.6c-.189.343-.359.695-.517,1.052-.108.245-.209.493-.312.74-.024.058-.2.449-.059.142a7.591,7.591,0,0,1-.38.767c-.067.115-.24.343-.058.127-.059.07-.446.385-.147.175a2.053,2.053,0,0,0-.717,2.736,2.016,2.016,0,0,0,2.736.717,5.476,5.476,0,0,0,1.592-1.655,6.8,6.8,0,0,0,.428-.848c.1-.217.186-.436.277-.655.017-.04.211-.5.121-.291-.083.192.174-.376.168-.363.067-.141.138-.28.211-.419q.246-.466.533-.91.159-.246.33-.485c-.007.009.21-.277.113-.155.119-.151.247-.3.377-.441.035-.039.332-.3.18-.19a1.718,1.718,0,0,1,.693-.206c.36-.074-.228.026.154-.026.2-.027.393-.046.589-.067.686-.076,1.373-.141,2.061-.2,1.5-.133,3-.253,4.5-.409a2.047,2.047,0,0,0,2-2,2.02,2.02,0,0,0-2-2Z"/><path class="a" d="M176,70.458a4.628,4.628,0,0,0-4.432-1.212,4.168,4.168,0,0,0-2.845,3.28,7.185,7.185,0,0,0,2.2,6.45,9.294,9.294,0,0,0,3.429,1.89,2.018,2.018,0,0,0,2.46-1.4,2.046,2.046,0,0,0-1.4-2.461c-.143-.046-.286-.093-.427-.145s-.458-.233.071.039c-.218-.112-.445-.2-.66-.324-.192-.107-.372-.229-.555-.349-.375-.246.324.283.054.045-.072-.064-.146-.126-.218-.192-.164-.153-.311-.318-.459-.486-.242-.275.279.41.081.1-.061-.094-.125-.185-.184-.281-.109-.181-.187-.38-.294-.56.3.507.1.241.035.059-.04-.113-.076-.227-.109-.342-.069-.241-.116-.485-.163-.731-.069-.364.022.489.017.1,0-.109-.01-.218-.007-.328,0-.074,0-.148.011-.222q.033-.322-.028.2a1.861,1.861,0,0,0,.074-.328,3.1,3.1,0,0,0,.1-.317c-.135.308-.156.368-.063.182a2.121,2.121,0,0,1,.111-.183l-.187.235a1.854,1.854,0,0,1,.14-.153c.228-.269-.34.23-.036.038.19-.1.139-.077-.15.057a2.01,2.01,0,0,1,.234-.062c-.309.032-.383.043-.224.032a1.734,1.734,0,0,1,.191-.005c.394-.019-.436-.115.045,0,.059.014.118.03.175.049q.3.11-.156-.07a2.922,2.922,0,0,0,.293.172c.169.121.124.085-.134-.106.059.05.117.1.174.154A2,2,0,0,0,176,70.458Z"/><path class="a" d="M187.127,80.458a5.753,5.753,0,0,1-4.313-.442,6.827,6.827,0,0,0-3.3-.808c-.239-.009-.493-.014-.766-.014-1.551,0-1-1.278-1.908-2.249-.923-.987-3.014-.275-3.8.765-.974,1.288-1.111,3,.8,4.484a26.066,26.066,0,0,0,6.523,3.489,20.677,20.677,0,0,0,2.1.446.692.692,0,0,1,.572-.161A10.127,10.127,0,0,0,188.4,85.1a4.207,4.207,0,0,0,2.13-2.316,5.5,5.5,0,0,0,.209-.595C190.544,80.779,189.019,80.016,187.127,80.458Z"/><path class="a" d="M415.184,117.888c2.967,10.816,3.688,21.782,3.423,32.953a259.145,259.145,0,0,1-2.913,33.215q-1.271,8.257-3.065,16.422c-.513,2.334-.947,4.43-.2,6.776.705,2.211,2.149,3.71,3.746,5.325,2.914,2.945,6.632,5.652,8.559,9.384a11.711,11.711,0,0,1,1.347,5.994,11,11,0,0,1-2.064,6.417c-1.152,1.383-3.311,1.853-5,2.071a48.915,48.915,0,0,1-6.3.13q-6.863-.009-13.726-.033-7.1-.023-14.2-.044c-4.2-.011-8.425.138-12.616-.039-2.12-.089-4.046-.558-5.4-2.287a9.244,9.244,0,0,1-2.111-5.627c-.039-4.065,3.164-7.082,5.647-9.925a54.361,54.361,0,0,0,8.374-12.927,41.272,41.272,0,0,0,3.65-13.769c.889-9.631-1.345-19.13-1.955-28.713q-.54-8.49-.258-17.005a90.261,90.261,0,0,1,1.479-15.957,32.1,32.1,0,0,1,2.109-6.491,2.06,2.06,0,0,0-.718-2.736,2.015,2.015,0,0,0-2.736.717,44.928,44.928,0,0,0-3.552,14.869,175.627,175.627,0,0,0,.465,35.444c.536,4.673,1.352,9.294,1.4,14.009a42.543,42.543,0,0,1-1.9,14.091,47.876,47.876,0,0,1-7.463,13.567c-2.765,3.58-6.47,6.646-7.954,11.053a12.94,12.94,0,0,0,3.377,13c3.259,3.242,8.364,2.707,12.572,2.713q7.049.011,14.1.036,7.425.022,14.85.044,3.468.009,6.937.013a47.413,47.413,0,0,0,6.857-.25,12.521,12.521,0,0,0,6.217-2.48c1.864-1.524,2.917-4.1,3.463-6.383a16.336,16.336,0,0,0-2.554-13.361,40.959,40.959,0,0,0-5.034-5.377c-1.553-1.51-3.093-3.027-4.591-4.592a5.693,5.693,0,0,1-1.216-5.408q.955-4.252,1.768-8.536a267.328,267.328,0,0,0,4.25-34.395c.666-11.5.817-23.114-1.258-34.492-.521-2.853-1.175-5.679-1.943-8.476-.68-2.48-4.54-1.427-3.857,1.063Z"/><path class="a" d="M386.642,202.306c5.946,1.43,12.074,1.545,18.157,1.608,2.575.027,2.577-3.973,0-4-5.727-.06-11.5-.119-17.093-1.465-2.5-.6-3.57,3.254-1.064,3.857Z"/><path class="b" d="M411.172,147.181c-.364-.093-.7-.192-.981-.3-1.527-.561-3.056-1.054-4.513-1.633-2.756-1.095-5.257-2.495-7.011-5.231a125.4,125.4,0,0,1-12.641-25.195c4.077-1.236,11.188-3.645,15.837-5.653q4.308,9.8,8.617,19.6l1.552,2.85c3.372,1.534,7.721,3.43,9.519,4.589a2.2,2.2,0,0,1,.736.654,2.151,2.151,0,0,1,.191,1.22,34.495,34.495,0,0,1-1.13,7.289,3.071,3.071,0,0,1-.771,1.552,2.338,2.338,0,0,1-1.207.583,15.4,15.4,0,0,1-4.358.329A29.482,29.482,0,0,1,411.172,147.181Z"/><path class="a" d="M391.591,63.606c-.34.269.237-.1.321-.142-.413.19.251-.055.341-.077s.815-.139.331-.08c.246-.03.494-.049.741-.064a12.78,12.78,0,0,1,1.384-.009c.262.012.526.031.787.065-.39-.05.368.075.439.091.256.056.51.122.761.2.083.026.8.3.368.113a7.557,7.557,0,0,1,1.048.556c.073.046.634.471.282.181.174.143.343.292.5.451a6.491,6.491,0,0,1,.453.5c-.29-.355.125.21.171.284a2,2,0,0,0,3.454-2.018,9.394,9.394,0,0,0-6.168-4.164c-2.685-.531-5.821-.474-8.044,1.286a2,2,0,0,0,0,2.828,2.061,2.061,0,0,0,2.829,0Z"/><path class="a" d="M400.2,110.321l8.558,19.465a2.014,2.014,0,0,0,2.736.718,2.052,2.052,0,0,0,.718-2.737L403.649,108.3a2.015,2.015,0,0,0-2.737-.718,2.05,2.05,0,0,0-.717,2.737Z"/><path class="a" d="M384.288,115.845c1.8,4.591,3.693,9.154,5.928,13.553,2.032,4,4.351,7.833,6.724,11.633,1.36,2.179,4.822.174,3.454-2.018-2.314-3.707-4.579-7.446-6.572-11.337a140.6,140.6,0,0,1-5.677-12.895,2.058,2.058,0,0,0-2.46-1.4,2.014,2.014,0,0,0-1.4,2.46Z"/><path class="a" d="M407.486,131.664c2.13,1.138,4.374,2.068,6.572,3.064a42.35,42.35,0,0,1,6.547,3.258c.2.134-.119-.177-.118-.212,0,.178-.012.355-.021.533-.024.507-.064,1.013-.113,1.517-.088.905-.225,1.8-.4,2.694a10.068,10.068,0,0,1-.632,2.671c-.317.577-1.047.489-1.7.586-3.016.447-5.954-.5-8.763-1.481-3.2-1.122-6.5-2.332-8.464-5.281-1.418-2.135-4.884-.134-3.454,2.018,2.26,3.4,5.6,5.212,9.349,6.585,3.623,1.327,7.465,2.661,11.385,2.159,2.225-.284,4.351-.629,5.291-2.947a25.355,25.355,0,0,0,1.366-6.787,10.338,10.338,0,0,0,.068-3.115,3.878,3.878,0,0,0-1.914-2.485,31.013,31.013,0,0,0-3.534-1.842c-3.132-1.485-6.387-2.755-9.446-4.389-2.27-1.213-4.293,2.239-2.019,3.454Z"/><path class="a" d="M379.921,111.816c.472,2.444,1.337,5.423,4.411,5.419,1.685,0,3.563-.885,5.145-1.4,4.233-1.374,8.447-2.847,12.55-4.576a8.936,8.936,0,0,0,2.629-1.372,4.744,4.744,0,0,0,1.487-3.517,4.356,4.356,0,0,0-4.559-4.463,40.755,40.755,0,0,0-4.915,1.062q-3.043.7-6.079,1.438c-2.115.514-4.229,1.037-6.329,1.612a6.858,6.858,0,0,0-3,1.315,4.638,4.638,0,0,0-1.41,3.949,2.066,2.066,0,0,0,2,2,2.011,2.011,0,0,0,2-2c-.07-.544-.132-.828.3-1.078a8.035,8.035,0,0,1,1.761-.489c1.458-.391,2.922-.76,4.388-1.122q4.681-1.155,9.386-2.215.837-.189,1.675-.376a3.63,3.63,0,0,1,.748-.165c-.473-.014-.1-.072-.079.157.037.46-.021-.359.057.135a1.009,1.009,0,0,1,.054.24.973.973,0,0,1-.109.492c-.3.405-1.249.616-1.713.809-3.187,1.326-6.449,2.481-9.72,3.583-1.619.546-3.243,1.075-4.876,1.573-.321.1-.643.21-.969.291-.129.033-.551.073-.359.135a6.937,6.937,0,0,1-.249-.736c-.125-.589-.255-1.175-.369-1.765a2.02,2.02,0,0,0-2.461-1.4A2.043,2.043,0,0,0,379.921,111.816Z"/><path class="a" d="M187.767,67.049c-.978.491-2,.9-2.984,1.374a2.636,2.636,0,0,0-1.211,1.022,2.517,2.517,0,0,0-.256,1.864,2.3,2.3,0,0,0,1.345,1.535c.258.109.52.21.778.318l-.478-.2a9.96,9.96,0,0,1,2.186,1.213l-.405-.313a4.766,4.766,0,0,1,.817.8l-.313-.405a3.385,3.385,0,0,1,.282.43,2,2,0,1,0,3.454-2.018c-1.035-1.871-3.117-2.836-5.019-3.575l.478.2a.278.278,0,0,1-.084-.051l.405.312-.033-.034.313.405a.3.3,0,0,1-.049-.083l.2.478a.4.4,0,0,1-.025-.1l.071.532a.436.436,0,0,1,0-.1l-.071.532a.608.608,0,0,1,.038-.151l-.2.478a.438.438,0,0,1,.053-.088l-.312.405a.337.337,0,0,1,.075-.071l-.405.312a19.04,19.04,0,0,1,1.849-.86c.51-.229,1.024-.454,1.524-.7a2,2,0,0,0-.477-3.656,2.207,2.207,0,0,0-1.542.2Z"/><path class="a" d="M297.47,136.69c1.3,11.827,5.722,23.244,9.583,34.418,3.884,11.237,7.859,22.444,11.476,33.77q.786,2.462,1.552,4.928.4,1.3.805,2.608a5.2,5.2,0,0,0,.317,1.033q.056.645.144.374.312-.381-.289.065c-1.809.726-3.54,1.868-5.3,2.724q-1.233.6-2.474,1.18a11.917,11.917,0,0,1-2.712,1.154h1.063c-.05-.009-.609-.187-.293.022.255.169,0-.057-.04-.182a4.04,4.04,0,0,0-.245-.525q-.269-.569-.541-1.133-.672-1.4-1.362-2.784-1.728-3.492-3.5-6.965c-2.063-4.064-4.128-8.13-6.283-12.146-3.13-5.834-6.086-11.741-9.362-17.5-3.57-6.275-7.6-12.172-11.62-18.159-4.325-6.447-7.97-13.614-8.813-21.45a2.059,2.059,0,0,0-2-2,2.013,2.013,0,0,0-2,2,48.616,48.616,0,0,0,6.908,19.638c3.558,5.916,7.8,11.387,11.349,17.314,1.929,3.219,3.754,6.5,5.594,9.767s3.387,6.654,5.146,9.948c1.886,3.532,3.769,7.061,5.6,10.624,2.238,4.363,4.465,8.733,6.607,13.144.361.743.684,1.514,1.069,2.244a3.618,3.618,0,0,0,4.4,1.831,51.938,51.938,0,0,0,5.324-2.47c1.787-.868,3.56-1.767,5.306-2.717,1.64-.892,2.743-2.346,2.378-4.3a46.476,46.476,0,0,0-1.562-5.184q-1.458-4.671-2.985-9.321c-2-6.088-4.094-12.145-6.195-18.2-2.291-6.6-4.617-13.195-6.833-19.823A158.53,158.53,0,0,1,302.15,141c-.28-1.429-.521-2.864-.68-4.312a2.059,2.059,0,0,0-2-2,2.012,2.012,0,0,0-2,2Z"/><path class="a" d="M265.45,145.858c-3.256,19.207-9.166,37.82-15.14,56.32q-1.106,3.423-2.211,6.847a6.978,6.978,0,0,0-.6,3.53,4.639,4.639,0,0,0,1.392,2.617,9.04,9.04,0,0,0,2.849,1.393q1.525.609,3.039,1.249c2.2.926,4.361,1.961,6.58,2.835a3.98,3.98,0,0,0,5.109-2.136c1.055-2.176,1.982-4.426,2.933-6.648q2.732-6.389,5.218-12.876c3.343-8.722,6.345-17.567,9.4-26.392.844-2.438-3.018-3.485-3.857-1.064-2.493,7.2-4.944,14.413-7.584,21.56q-2.088,5.655-4.343,11.245c-1.642,4.055-3.205,8.27-5.222,12.156-.086.166-.267.484-.219.476-.176.03-.79-.368-.976-.449q-1.6-.7-3.212-1.39c-1.926-.827-3.857-1.646-5.8-2.423-.568-.227-1.435-.316-1.413-1a6.81,6.81,0,0,1,.5-1.394l.588-1.822q1.032-3.2,2.066-6.4c2.747-8.516,5.463-17.044,7.908-25.652a278.331,278.331,0,0,0,6.862-29.523,2.058,2.058,0,0,0-1.4-2.46,2.016,2.016,0,0,0-2.46,1.4Z"/><path class="a" d="M296.177,73.835c.936,2.484,1.865,4.971,2.7,7.494a40.021,40.021,0,0,1,2.256,9.1c.352,4.371-.5,8.8-1.152,13.11-.555,3.64-1.178,7.268-1.689,10.915a2.067,2.067,0,0,0,1.4,2.46,2.014,2.014,0,0,0,2.46-1.4c.521-3.713,1.157-7.406,1.719-11.113.7-4.58,1.64-9.326,1.265-13.975-.489-6.08-2.963-12-5.1-17.655a2.057,2.057,0,0,0-2.461-1.4,2.016,2.016,0,0,0-1.4,2.461Z"/><path class="a" d="M262.609,124.429l-1.7,4.791a34.955,34.955,0,0,0-1.611,4.687c-.647,3.29,2.4,4.6,4.922,5.562,2.8,1.075,5.7,1.9,8.57,2.769a63.032,63.032,0,0,0,8.047,1.957c5.236.859,10.8,1.089,15.6-1.5a8.561,8.561,0,0,0,4.24-4.679,18.386,18.386,0,0,0,.764-6.622,152.256,152.256,0,0,1,.77-16.416,2.014,2.014,0,0,0-2-2,2.045,2.045,0,0,0-2,2c-.431,4.3-.694,8.585-.76,12.9-.032,2.1.06,4.2-.043,6.3a6.164,6.164,0,0,1-1.367,3.965c-2.833,2.847-7.825,2.845-11.5,2.525-5.049-.439-9.908-2.014-14.718-3.52-1.355-.424-2.707-.859-4.04-1.35-.407-.15-2.538-.748-2.658-1.217.072.283.644-1.159.268-.42a12.014,12.014,0,0,0,.485-1.369l.808-2.282,1.779-5.019c.861-2.431-3-3.477-3.857-1.063Z"/><path class="c" d="M306.4,119.307c-3.372-5.866-8.906-15.82-11.707-20.671a2.359,2.359,0,0,0-3.153-.9c-7.086,3.773-27.658,15.012-35.059,19.253a2.351,2.351,0,0,0-.919,3.133c2.741,5.252,8.716,16.184,11.483,21.167a2.35,2.35,0,0,0,3.175.933c11.321-6.095,28.468-15.752,35.313-19.692A2.353,2.353,0,0,0,306.4,119.307Z"/><path class="a" d="M308.117,118.233c-2.758-4.8-5.456-9.636-8.176-14.459-1.165-2.065-2.26-4.208-3.531-6.211a4.492,4.492,0,0,0-3.759-2.167,6.416,6.416,0,0,0-3.106,1.066q-12.249,6.556-24.394,13.309-2.914,1.612-5.821,3.237c-1.526.854-3.564,1.654-4.8,2.911-2.265,2.3-.826,4.928.412,7.26q1.812,3.412,3.659,6.806,1.958,3.609,3.933,7.21.858,1.566,1.72,3.128a12.188,12.188,0,0,0,1.782,2.856c2.5,2.476,5.378.6,7.847-.738s4.952-2.705,7.422-4.07q8.486-4.687,16.927-9.458,3.294-1.86,6.579-3.736a10.044,10.044,0,0,0,2.881-1.986,4.461,4.461,0,0,0,.427-4.958c-1.117-2.318-4.567-.292-3.454,2.019.23.478-.61.748-1.066,1.009q-1.18.678-2.364,1.351-2.8,1.595-5.607,3.177-6.642,3.749-13.309,7.449-3.49,1.938-6.991,3.858-1.5.822-3,1.641l-1.516.823c-.416.225-1.136.831-1.606.867s-.771-.816-1.033-1.288q-.777-1.407-1.552-2.816-1.766-3.213-3.517-6.434-1.7-3.117-3.376-6.242-.735-1.37-1.464-2.742c-.254-.48-1.106-1.656-.97-2.039.152-.427,1.2-.793,1.575-1q1.129-.641,2.262-1.274,2.474-1.386,4.955-2.759,11.429-6.33,22.925-12.537,1.146-.618,2.293-1.233c.439-.235,1.17-.855,1.555-.6.31.205.578.95.753,1.256q.441.77.878,1.541.917,1.611,1.826,3.226c2.78,4.926,5.536,9.867,8.353,14.772C305.945,122.484,309.4,120.471,308.117,118.233Z"/><path class="b" d="M284.956,138.122a2.8,2.8,0,0,0-.264.2,5.429,5.429,0,0,1-8.038-1.109c-1.241-1.735-1.786-2.455-2.515-3.5-.223-.317-.463-.665-.745-1.081-1.519-2.287-2.826-3.374-3.665-4.753,2.453-2.036,5.825-5.095,8.266-7.46q.579.309,1.16.614a4.2,4.2,0,0,0,2.224.478l3.284-.2c1.155-.16,2.464,2,3.745,2.953,1.553,1.152,2.6,2.553.752,4.424.908.607,1.858,1.222,2.963,1.968a2.239,2.239,0,0,1,.579,3.189,2.664,2.664,0,0,1-2.856,1.167,3.977,3.977,0,0,1-3.427,2.657A2.68,2.68,0,0,0,284.956,138.122Z"/><path class="a" d="M291.3,129.236a4.213,4.213,0,0,0-.379-5.4,5.605,5.605,0,0,0-.737-.708c-.225-.185-.461-.355-.688-.536-.2-.162.091.064.105.078-.07-.071-.153-.132-.226-.2-.517-.476-.973-1.014-1.467-1.513a4.445,4.445,0,0,0-3.382-1.637c-.817.054-1.634.1-2.451.152-.294.018-.589.046-.883.05-.129,0-.256-.009-.384-.011.2,0,.127.028-.037-.011-.093-.023-.186-.045-.278-.071-.034-.01-.385-.13-.213-.061.187.075-.1-.053-.111-.059l-.352-.186-.7-.372a2,2,0,0,0-2.019,3.454,9.678,9.678,0,0,0,2.991,1.215,7.85,7.85,0,0,0,1.731.068c.913-.057,1.847-.058,2.755-.171.03,0,.062,0,.092-.006.367-.086-.479-.139-.113-.037s-.473-.142,0,.025q.083.052.162.111-.333-.261-.077-.047c.568.565,1.112,1.157,1.683,1.718a13.293,13.293,0,0,0,1.085.91c-.319-.253.231.2.283.252a4.646,4.646,0,0,1,.458.483c-.287-.357-.027.016.033.107q-.143-.384-.035-.072c.05.22.052.185,0-.107q-.007.336.042-.087a2.076,2.076,0,0,1-.084.309c.138-.407-.19.245-.258.338a2.008,2.008,0,0,0,.718,2.737,2.056,2.056,0,0,0,2.736-.718Z"/><path class="a" d="M284.7,127.924c1.694,1.311,3.458,2.5,5.243,3.682.325.215.981.493,1.187.817.063.1-.034.328.019.12a1.1,1.1,0,0,1-.347.464c-.352.239-.078.019-.269.064-.082.019-.543-.046-.158.015a2.086,2.086,0,0,0-2.46,1.4,2.062,2.062,0,0,1-1.435,1.179c-.5.121-1.019.085-1.517.253a5.486,5.486,0,0,0-1.448.8,3.532,3.532,0,0,1-4.638,0,23.454,23.454,0,0,1-3.081-4.109c-1.2-1.721-2.464-3.347-3.8-4.965a2.014,2.014,0,0,0-2.828,0,2.046,2.046,0,0,0,0,2.829c1.413,1.709,2.677,3.479,3.973,5.276,1.454,2.015,2.739,4.215,5.111,5.244a7.16,7.16,0,0,0,4,.521,7.36,7.36,0,0,0,1.884-.564c.673-.3,1.187-.761,1.819-1.1a6.107,6.107,0,0,1,1.591-.338,5.729,5.729,0,0,0,1.587-.658,6.509,6.509,0,0,0,2.642-3.315l-2.46,1.4a4.889,4.889,0,0,0,4.142-.971,4.491,4.491,0,0,0,1.516-4.578c-.517-1.77-2.038-2.6-3.48-3.554-1.34-.885-2.691-1.761-3.961-2.745a2.069,2.069,0,0,0-2.829,0,2.014,2.014,0,0,0,0,2.829Z"/><path class="f" d="M270.485,75.519c-1.376.881-2.621,2.094-3.927,3.087-3,2.286-10.458,12.075-12.517,15a16.786,16.786,0,0,0-3.448,9.958c.186,6,4.249,11.3,8.475,15.554,3.2,3.223,5.344,5.6,8.316,8.64a1.731,1.731,0,0,0,2.34.133c2.65-2.2,6.374-5.594,8.839-8.018a1.722,1.722,0,0,0,.057-2.39c-3.565-3.884-5.873-6.3-9.282-10.646-.95-1.211-1.94-2.627-1.7-4.146.219-1.358,1.45-2.249,2.425-3.219,2.12-2.108,4.211-4.122,6.943-6.622"/><path class="a" d="M269.475,73.792c-5.519,3.668-9.6,8.857-13.606,14.043a52.857,52.857,0,0,0-5.028,7.142,16.844,16.844,0,0,0-1.519,13.008,29.256,29.256,0,0,0,6.8,10.937c2.993,3.267,6.14,6.424,9.226,9.606,1.666,1.718,3.765,2.4,5.793.775,1.547-1.243,3.02-2.59,4.489-3.924s3.016-2.636,4.35-4.094c1.8-1.969,1.049-4.14-.56-5.889-1.585-1.725-3.18-3.441-4.721-5.206a40.82,40.82,0,0,1-4.622-5.762,1.689,1.689,0,0,1,.3-2.491c.815-.82,1.663-1.611,2.49-2.42q2.733-2.676,5.558-5.255c1.9-1.744-.934-4.566-2.829-2.829q-2.312,2.12-4.57,4.295c-1.328,1.283-2.792,2.53-3.991,3.933-3.372,3.945.284,7.924,2.874,11.056,1.216,1.47,2.474,2.906,3.756,4.32q.945,1.042,1.9,2.074c.341.371.681.744,1.024,1.113a4.41,4.41,0,0,0,.407.435c.208.17.023-.024.152-.2a14.538,14.538,0,0,1-1.835,1.766q-1.1,1.035-2.211,2.051c-1.4,1.276-2.8,2.565-4.267,3.761-.493.4-.307.112-.061.287a11.148,11.148,0,0,1-.9-.937q-1.089-1.127-2.164-2.264c-1.4-1.476-2.8-2.956-4.228-4.411-2.785-2.845-5.512-5.72-7.31-9.318a12.938,12.938,0,0,1-.534-11.04,33.542,33.542,0,0,1,4.537-6.994c3.881-5.115,7.909-10.514,13.324-14.112,2.134-1.418.134-4.884-2.019-3.454Z"/><path class="a" d="M277.383,77.378a15.483,15.483,0,0,1,2.629,2.645l-.313-.405q.387.5.734,1.032a2.108,2.108,0,0,0,1.195.919,2.042,2.042,0,0,0,1.541-.2,2,2,0,0,0,.717-2.737,16.993,16.993,0,0,0-3.674-4.081,2.222,2.222,0,0,0-1.414-.586,2.037,2.037,0,0,0-1.415.586,2.013,2.013,0,0,0-.585,1.414,1.933,1.933,0,0,0,.585,1.414Z"/><path class="a" d="M302.251,78.965c5.471.025,11,.655,16.441,1.2l-1.01-.273.01.007-.717-.718c-.063-.137-.113-1.166-.248-.776a1.626,1.626,0,0,0-.006.3c-.036.334-.038.675-.065,1.01-.077.992-.177,1.982-.279,2.971-.243,2.36-.513,4.718-.791,7.075-.106.892-.212,1.784-.324,2.676-.03.247-.062.494-.094.742.095-.74.02-.161-.033.23q-.094.7-.183,1.4c-.371,2.943-.637,6.139-2.134,8.766a7.344,7.344,0,0,1-4.092,3.434c-2.184.691-4.4.02-6.408-.908a2.06,2.06,0,0,0-2.737.718,2.016,2.016,0,0,0,.718,2.736c3.042,1.406,6.39,2.366,9.694,1.247a11.538,11.538,0,0,0,6.435-5.49c2.071-3.89,2.289-8.518,2.826-12.81q.642-5.136,1.171-10.285a29.982,29.982,0,0,0,.3-3.783c-.067-2.392-2.316-2.309-4.128-2.474-4.755-.434-9.57-.979-14.349-1-2.574-.012-2.578,3.988,0,4Z"/><path class="a" d="M299.8,90.028c-1.356-3.82-2.721-7.655-4.388-11.353a20.72,20.72,0,0,0-6.248-7.706c-1.565-1.219-3.271-2.208-4.932-3.286a25.8,25.8,0,0,0-5.237-3.027c-1.976-.688-3.566.5-4.618,2.08-.9,1.357-1.838,2.693-2.736,4.054-1.422,2.155,2.04,4.16,3.454,2.019.729-1.105,1.493-2.186,2.229-3.286.146-.218.645-1.068.717-1.106-.358.189.274.321.545.469.37.2.734.413,1.094.631a51.528,51.528,0,0,1,8.062,5.449c4.569,4.135,6.2,10.5,8.2,16.126.856,2.409,4.722,1.371,3.857-1.064Z"/><path class="a" d="M285,120.741c-1.235,1.184-4.724,2.65-6.364.179-1.768-3.474,2.182-5.767,4.686-5.593C285.376,115.47,287.475,117.939,285,120.741Z"/><path class="a" d="M383.987,32.243a21,21,0,0,1-1.38-12.968,18.568,18.568,0,0,1,5.5-10.67,17.363,17.363,0,0,1,22.307-1.071,19.331,19.331,0,0,1,6.452,9.6c1.173,3.864,3.164,7.806,3.084,11.763-.069,3.382-.675,7.5-2.955,10.173a13.739,13.739,0,0,1-9.179,5.045A27.365,27.365,0,0,1,394.5,41.879a20.758,20.758,0,0,1-6.378-3.713,20.6,20.6,0,0,1-4.137-5.923c-1.156-2.3-4.608-.277-3.453,2.019a21.589,21.589,0,0,0,10.708,10.546c4.45,1.953,9.02,3.513,13.936,3.455,4.637-.055,9.265-1.168,12.757-4.41a16.287,16.287,0,0,0,3.578-4.378,22,22,0,0,0,2.091-6.653,20.857,20.857,0,0,0,.112-7.238,53.788,53.788,0,0,0-2.066-6.7,54.044,54.044,0,0,0-2.624-7.065,22.912,22.912,0,0,0-4.173-5.674,21.306,21.306,0,0,0-26.831-2.534,21.783,21.783,0,0,0-9,13.316,33.057,33.057,0,0,0-.772,8.388,21.021,21.021,0,0,0,2.285,8.947C381.656,36.578,385.106,34.552,383.987,32.243Z"/><path class="a" d="M394.991,15.169a8.315,8.315,0,0,0-8.021,6.569,10.407,10.407,0,0,0,2.45,9.814,8.3,8.3,0,0,0,10.739.478c2.735-2.169,3.513-5.994,3.042-9.3a9.511,9.511,0,0,0-2.4-5.165,8.012,8.012,0,0,0-5.812-2.4,2,2,0,0,0,0,4c.216,0,.431.01.646.028-.3-.026.022,0,.077.011a8.844,8.844,0,0,1,.933.249c.523.165-.264-.186.2.09.1.061.211.112.314.174a4.984,4.984,0,0,1,.442.294c-.337-.253.1.1.13.136.089.084.623.7.377.374a6.24,6.24,0,0,1,.472.731c.062.111.39.858.247.476a9.487,9.487,0,0,1,.321,1.015,8.687,8.687,0,0,1,.172.873c-.064-.443.02.394.025.53.011.293.008.586-.006.878-.009.176-.027.35-.041.526-.034.438.077-.3-.025.164a10.619,10.619,0,0,1-.47,1.67c.16-.4-.175.327-.242.444-.085.147-.182.285-.27.43-.213.348.208-.193-.1.129-.195.207-.387.4-.6.6-.39.361.2-.124-.07.051-.122.078-.242.159-.368.231s-.259.14-.393.2c-.295.139.432-.109-.114.037-.152.04-.3.094-.454.133-.072.018-.706.136-.349.088a6.568,6.568,0,0,1-1.068.043c.047,0-.626-.047-.345-.014s-.35-.068-.317-.061a5.211,5.211,0,0,1-.9-.277c.344.147-.018-.02-.1-.069-.177-.109-.357-.213-.532-.326-.318-.2-.081-.064-.017-.009-.133-.115-.264-.231-.388-.356-.083-.083-.164-.169-.242-.256-.038-.043-.369-.5-.127-.146a8.234,8.234,0,0,1-.468-.754c-.057-.105-.106-.213-.162-.318q-.144-.318-.015-.016c-.044-.112-.086-.224-.126-.338a8.473,8.473,0,0,1-.251-.87c-.032-.138-.15-.964-.111-.545a9.94,9.94,0,0,1,.008-1.989c-.009.085-.074.378,0-.007.042-.208.079-.416.13-.622.08-.323.185-.635.293-.95.183-.535-.187.312.081-.183.085-.158.161-.318.25-.474s.191-.3.285-.451c.214-.346-.185.166.119-.156a6.917,6.917,0,0,1,.763-.739c-.3.231.024-.006.105-.051.186-.105.367-.214.557-.311.348-.179.117-.044.039-.017a6.617,6.617,0,0,1,.745-.217c.13-.029.264-.057.4-.075-.325.044.455-.007.531-.008a2,2,0,0,0,0-4Z"/></svg>